<?xml version="1.0" encoding="utf-8"?>
<!-- Generator: Adobe Illustrator 27.5.0, SVG Export Plug-In . SVG Version: 6.00 Build 0)  -->
<svg version="1.1" id="Capa_1" xmlns="http://www.w3.org/2000/svg" xmlns:xlink="http://www.w3.org/1999/xlink" x="0px" y="0px"
	 viewBox="0 0 2122 2122" style="enable-background:new 0 0 2122 2122;" xml:space="preserve">
<g>
	<path style="fill:#F7EDD7;" d="M1860.097,618.882c-104.33-82.47-136.779-43.997-190.553-105.647
		c-53.775-61.649-53.067-126.893-90.822-199.754c-53.452-103.155-233.055-111.545-322.451-11.426
		c-112.392,125.874,16.311,215.92-21.056,350.085c-27.252,97.848-524.511,504.961-606.273,515.333
		c-138.164,17.528-206.568-126.264-348.904-35.618c-113.214,72.099-133.867,250.708-40.67,320.08
		c65.827,49,129.922,56.049,182.103,119.054c52.182,63.004,9.394,91.593,73.979,207.846
		c65.184,117.331,239.265,148.262,341.534,61.333c90.059-76.551,45.692-192.923,69.696-339.307
		c13.044-79.548,526.924-525.683,612.823-520.901c148.111,8.244,256.044,62.427,346.103-14.124
		C1967.877,878.906,1965.394,702.117,1860.097,618.882z"/>
	<path style="fill:#E8D8BD;" d="M1626.295,534.049c78.688,77.167,204.513,140.459,179.615,272.936
		c-10.454,41.625-38.774,85.34-88.571,88.381c-93.133,13.685-150.153-68.804-239.865-97.314
		c-24.328-5.512-55.689-11.594-74.696,4.562c-225.8,165.739-483.53,332.428-592.818,589.018
		c-35.542,89.141,13.115,231.121-94.273,289.662c-51.508,24.138-113.66,4.942-153.004-33.642
		c-81.906-96.359-193.566-183.52-322.005-194.791c65.366,48.125,128.959,55.541,180.794,118.126
		c52.181,63.004,9.394,91.594,73.979,207.846c65.184,117.331,239.265,148.262,341.534,61.333
		c90.059-76.551,45.692-192.923,69.696-339.307c13.044-79.548,526.924-525.683,612.823-520.901
		c148.111,8.244,256.044,62.427,346.103-14.124c102.269-86.929,99.787-263.718-5.51-346.953
		c-104.33-82.47-136.779-43.997-190.553-105.647c-53.775-61.65-53.067-126.893-90.822-199.755
		c-6.594-12.726-15.124-23.996-25.152-33.812C1546.251,373.755,1555.68,462.574,1626.295,534.049z"/>
	<path style="fill:#E8D8BD;" d="M551.862,1557.51c-16.833-22.955-34.728-44.814-56.265-63.644
		c-38.54-33.692-86.866-54.117-135.806-67.538c-13.883-3.807-27.953-6.966-42.036-9.934c-13.946-2.939-28.777-6.096-43.031-6.005
		c-2.51,0.016-3.076,3.088-0.882,4.16c11.433,5.584,24.178,9.088,36.321,12.941c12.017,3.814,24.013,7.651,35.881,11.912
		c23.384,8.395,46.634,17.525,68.702,29.002c22.085,11.485,43.428,25.198,62.43,41.314c9.703,8.228,18.504,17.434,26.849,27.021
		c9.221,10.592,17.699,22.761,28.476,31.841c12.059,10.161,23.193,21.338,35.669,31.063c12.403,9.667,25.753,16.821,40.959,20.825
		c0.9,0.237,1.724-0.771,1.065-1.551C592.004,1597.35,568.623,1580.366,551.862,1557.51z"/>
	<path style="fill:#E8D8BD;" d="M1510.581,317.809c-4.91,11.6-9.451,22.789-11.562,35.316c-2.034,12.069-2.98,24.03-2.787,36.268
		c0.395,24.985,3.888,49.636,11.239,73.541c7.42,24.131,17.809,46.894,32.277,67.639c15.201,21.797,34.456,39.787,55.729,55.569
		c6.709,4.977,14.054,7.963,21.217,12.082c7.24,4.164,14.141,9.378,20.879,14.305c6.6,4.827,13.461,9.832,19.471,15.367
		c2.774,2.554,5.301,5.33,7.891,8.063c3.185,3.361,7.171,5.69,10.245,9.039c2.934,3.195,7.549-0.091,6.179-3.961
		c-1.288-3.64-1.552-7.346-3.306-10.847c-1.278-2.551-3.11-4.926-4.755-7.25c-4.294-6.067-8.951-12.196-14.223-17.43
		c-9.956-9.883-21.778-17.821-31.583-27.751c-10.345-10.478-22.473-18.525-33.644-28.056c-8.531-7.277-16.268-15.547-23.346-24.233
		c-29.349-36.024-46.075-80.705-51.265-126.639c-1.475-13.049-1.925-26.286-1.939-39.413c-0.013-13.425-0.743-26.867-0.098-40.205
		C1517.39,315.27,1512.086,314.253,1510.581,317.809z"/>
	<path style="fill:#E8D8BD;" d="M489.426,1437.359c-11.95-8.316-25.313-14.975-38.826-20.344
		c-13.882-5.515-28.375-6.165-43.051-7.472c-3.393-0.303-4.529,4.766-1.244,5.862c12.84,4.28,24.368,11.779,36.538,17.64
		c12.352,5.949,23.764,13.552,34.774,21.677c10.861,8.016,19.805,17.659,29.851,26.558c5.08,4.501,9.744,8.735,14.013,14.053
		c4.396,5.476,8.689,11.032,13.04,16.545c4.902,6.211,14.278-0.377,11.382-7.296c-5.685-13.581-14.568-26.206-23.255-38.065
		C514.226,1455.016,501.033,1445.436,489.426,1437.359z"/>
	<path style="fill:#E8D8BD;" d="M1468.566,458.576c-2.913,7.371-5.513,15.191-6.783,23.015c-1.224,7.551-0.314,15.251,1.12,22.732
		c3.176,16.56,9.913,31.716,19.12,45.761c10.419,15.895,23.761,28.861,38.856,40.299c15.419,11.685,33.082,22.456,51.312,29.132
		c2.16,0.79,4.097-1.985,2.557-3.722c-11.781-13.279-26.174-24.436-39.189-36.475c-12.666-11.715-25.055-24.687-34.923-38.877
		c-7.816-11.239-14.277-24.499-17.746-37.762c-1.735-6.629-2.399-13.393-3.662-20.098c-1.407-7.477-2.018-14.392-1.018-21.958
		C1478.971,454.858,1470.581,453.475,1468.566,458.576z"/>
	<path style="fill:#E8D8BD;" d="M616.47,1187.951c-8.057,0.175-16.258,2.96-24.088,3.308c-7.375,0.328-15.557-0.565-23.088-1.915
		c-7.327-1.314-14.208-4.01-21.08-6.782c-7.384-2.98-14.595-6.183-20.849-11.153c-3.413-2.713-7.737,2.392-5.033,5.604
		c5.561,6.608,11.243,13.064,18.36,18.03c7.273,5.075,15.98,8.657,24.461,11.156c8.554,2.522,17.445,3.725,26.362,3.64
		c8.805-0.084,20.294-0.223,27.98-5.007c3.4-2.116,5.734-5.39,4.991-9.59C623.849,1191.644,620.349,1187.867,616.47,1187.951z"/>
	<path style="fill:#E8D8BD;" d="M604.635,1218.177c-4.589-2.701-9.393,0.206-13.937,1.834l-0.279,0.079l-0.512,0.183l-0.074,0.019
		l-0.252,0.102l0.171-0.082c-0.713,0.199-1.429,0.382-2.152,0.543c-1.621,0.36-3.262,0.624-4.915,0.792l-1.179,0.101l-0.472,0.031
		c-0.546,0.032-0.314,0.022,0.695-0.031l-1.885,0.078c-0.634,0.029-1.228,0.092-1.852,0.172c-0.763,0.097-1.527,0.16-2.294,0.227
		l-0.022,0.002l-1.123,0.018c-0.786,0-1.572-0.021-2.357-0.066c-0.464-0.027-0.936-0.051-1.398-0.111l-0.619-0.106l-0.803-0.177
		l-1.151-0.3c-0.839-0.232-1.665-0.496-2.488-0.78c-2.275-0.786-4.875,0.257-5.926,2.421c-1.001,2.061-0.549,4.944,1.573,6.206
		c3.27,1.945,6.824,3.558,10.391,4.884c3.743,1.392,7.602,2.289,11.607,2.179c3.977-0.111,7.903-0.49,11.748-1.541
		c2.144-0.585,4.398-1.208,6.439-2.124c1.378-0.619,2.52-1.558,3.593-2.59c1.919-1.846,2.708-3.663,2.777-5.953l0.033-0.11
		C608.758,1221.324,607.257,1218.909,604.635,1218.177z"/>
	<path style="fill:#E8D8BD;" d="M1260,592.554c0.188,7.34-0.069,14.792-0.617,22.133c-2.863,5.326-1.699,12.814-2.219,18.674
		c-0.525,5.898-1.232,11.831-2.291,17.657c-2.03,11.169-4.766,22.947-9.167,33.418c-1.858,4.421,4.565,7.249,7.247,3.657
		c3.799-5.086,7.48-9.934,10.541-15.544c3.171-5.813,5.827-11.733,7.876-18.03c2.03-6.237,3.567-12.589,4.533-19.078
		c1.002-6.726,2.751-14.802-0.49-20.958c-0.988-8.177-2.904-15.888-5.769-23.658C1267.941,586.201,1259.871,587.535,1260,592.554z"
		/>
	<path style="fill:#E8D8BD;" d="M1301.374,599.607c-1.546-0.954-3.174-1.426-4.996-1.342c-3.733,0.175-7.867,3.367-7.784,7.458
		c0.047,2.333,0.031,4.636,0.231,6.968l0.089,1.173c0.018,0.818,0.031,1.635,0.049,2.452c0.077,3.483-0.06,6.949-0.52,10.405
		c-0.222,1.67-0.515,3.327-0.741,4.996c-0.123,0.91-0.267,1.816-0.43,2.719l-0.194,1.004l-0.03,0.116
		c-0.859,3.453-1.896,6.817-3.273,10.102c-1.143,2.728,0.465,5.976,2.954,7.231c2.68,1.352,5.797,0.497,7.571-1.919
		c4.521-6.155,8.461-13.362,10.111-20.859c1.794-8.154,2.942-17.042,0.421-25.157
		C1304.183,602.857,1303.361,600.835,1301.374,599.607z"/>
	<path style="fill:#E8D8BD;" d="M1484.932,645.279c-1.294-0.871-2.718-1.373-4.272-1.504c-0.754,0.035-1.51,0.07-2.265,0.105
		c-1.574,0.285-2.972,0.944-4.194,1.976c-0.96,0.756-1.662,1.687-2.108,2.794c-0.606,0.985-0.935,2.067-0.987,3.245
		c-0.139,1.172,0.012,2.293,0.451,3.362c0.261,1.164,0.805,2.197,1.63,3.097c0.59,0.531,1.179,1.061,1.769,1.591
		c1.294,0.872,2.718,1.373,4.272,1.504c0.755-0.035,1.51-0.07,2.265-0.106c1.573-0.284,2.971-0.943,4.194-1.976
		c0.96-0.756,1.663-1.687,2.108-2.794c0.606-0.985,0.936-2.066,0.986-3.245c0.139-1.172-0.011-2.292-0.451-3.362
		c-0.262-1.165-0.805-2.197-1.631-3.098C1486.111,646.34,1485.522,645.81,1484.932,645.279z"/>
	<path style="fill:#E8D8BD;" d="M1522.145,738.871c-13.377,11.37,4.272,32.177,17.67,20.788
		C1553.192,748.289,1535.544,727.482,1522.145,738.871z"/>
	<path style="fill:#E8D8BD;" d="M1555.307,668.055c-8.026,6.822,2.563,19.307,10.602,12.473
		C1573.935,673.706,1563.346,661.222,1555.307,668.055z"/>
	<path style="fill:#E8D8BD;" d="M1612.66,715.342c-1.262,0.228-2.384,0.756-3.366,1.585c-0.975,0.835-1.678,1.856-2.106,3.065
		l-0.199,0.866l-0.1,0.433l-0.045,0.197l-0.027,0.118c-0.106,0.498-0.211,0.996-0.317,1.494c-0.04,0.523-0.015,1.039,0.076,1.548
		c0.369,2.086,1.874,3.857,3.874,4.558l0.768,0.166c0.742,0.222,1.499,0.251,2.272,0.086l0.1-0.006l0.223-0.014l0.443-0.028
		l0.887-0.057c1.262-0.228,2.383-0.756,3.364-1.584c0.976-0.835,1.678-1.857,2.107-3.066c0.828-2.366,0.33-5.05-1.294-6.961
		C1617.698,715.829,1615.127,714.905,1612.66,715.342z"/>
	<path style="fill:#E8D8BD;" d="M1634.54,812.524c-12.516,10.639,3.997,30.109,16.534,19.452
		C1663.591,821.337,1647.077,801.867,1634.54,812.524z"/>
	<path style="fill:#E8D8BD;" d="M1686.264,696.805c-1.877-1.265-3.943-1.992-6.196-2.182c-1.096,0.051-2.191,0.102-3.286,0.153
		c-2.283,0.413-4.31,1.368-6.084,2.867c-1.392,1.096-2.412,2.447-3.058,4.054c-0.879,1.428-1.356,2.997-1.432,4.707
		c-0.201,1.7,0.017,3.325,0.655,4.876c0.38,1.69,1.168,3.188,2.365,4.494l2.565,2.307c1.877,1.265,3.943,1.992,6.196,2.182
		c1.096-0.051,2.191-0.102,3.286-0.154c2.282-0.413,4.31-1.368,6.084-2.866c1.392-1.096,2.413-2.448,3.058-4.054
		c0.879-1.427,1.356-2.997,1.432-4.707c0.201-1.7-0.017-3.325-0.655-4.877c-0.379-1.689-1.167-3.187-2.366-4.493L1686.264,696.805z"
		/>
	<path style="fill:#E8D8BD;" d="M1726.179,744.606c-12.039,10.233,3.844,28.96,15.903,18.71
		C1754.12,753.084,1738.236,734.357,1726.179,744.606z"/>
	<path style="fill:#E8D8BD;" d="M623.35,1400.788c-1.979-0.682-3.999-0.846-6.061-0.491c-2.127,0.385-4.017,1.275-5.67,2.671
		c-1.644,1.406-2.826,3.128-3.549,5.164c-0.682,1.979-0.846,3.999-0.491,6.061c0.385,2.126,1.275,4.016,2.671,5.669
		c1.406,1.644,3.129,2.827,5.165,3.549l0.899,0.279c0.95,0.201,1.902,0.403,2.852,0.603l0.067,0.002l0.084,0.002l0.185,0.005
		l0.403,0.01c1.404,0.167,2.746-0.014,4.027-0.54c1.395-0.313,2.632-0.964,3.71-1.953c0.635-0.706,1.271-1.412,1.906-2.118
		c1.044-1.55,1.644-3.255,1.801-5.116l0.054-0.383c0.155-1.121,0.124-1.721-0.088-3.262l-0.13-0.933
		c-0.385-2.126-1.275-4.016-2.672-5.669C627.108,1402.693,625.386,1401.51,623.35,1400.788z"/>
	<path style="fill:#E8D8BD;" d="M648.662,1475.834c-10.509,8.933,3.357,25.282,13.884,16.334
		C673.056,1483.235,659.19,1466.886,648.662,1475.834z"/>
	<path style="fill:#E8D8BD;" d="M718.638,1504.138c-0.903-0.455-1.805-0.91-2.707-1.365c-0.976-0.206-1.951-0.412-2.926-0.619
		c-0.996,0.047-1.992,0.093-2.987,0.14c-0.964,0.303-1.928,0.607-2.892,0.911c-1.5,0.635-2.729,1.589-3.688,2.861
		c-0.802,0.686-1.379,1.525-1.732,2.519c-0.799,1.298-1.233,2.724-1.302,4.28c-0.086,0.487-0.174,0.975-0.26,1.463
		c-0.162,1.369,0.013,2.677,0.527,3.926c0.306,1.36,0.94,2.566,1.905,3.618c0.687,0.619,1.376,1.238,2.065,1.858
		c1.511,1.018,3.174,1.603,4.988,1.757c0.496-0.008,0.991-0.015,1.486-0.022c0.995-0.047,1.992-0.093,2.987-0.14
		c0.965-0.304,1.928-0.607,2.892-0.911c1.5-0.635,2.729-1.589,3.688-2.861c0.801-0.686,1.379-1.525,1.731-2.519
		c0.575-0.854,0.906-1.792,0.991-2.817c0.334-0.965,0.414-1.951,0.24-2.956c0.08-1.025-0.095-2.006-0.524-2.94
		c-0.345-1.536-1.062-2.898-2.151-4.084C720.192,1505.537,719.415,1504.838,718.638,1504.138z"/>
	<path style="fill:#E8D8BD;" d="M716.05,1398.983c-10.05-3.377-15.742,11.274-6.228,15.768
		C720.108,1419.611,726.82,1402.603,716.05,1398.983z"/>
	<path style="fill:#E8D8BD;" d="M665.524,1571.74c-1.914-0.66-3.867-0.818-5.863-0.475c-2.056,0.372-3.885,1.233-5.483,2.583
		c-1.59,1.36-2.734,3.025-3.433,4.996c-0.659,1.913-0.818,3.867-0.475,5.862c0.372,2.057,1.233,3.885,2.583,5.484
		c1.361,1.59,3.026,2.735,4.996,3.433l1.188,0.493c1.802,0.621,3.642,0.77,5.519,0.448c1.936-0.35,3.657-1.161,5.162-2.432
		c1.497-1.281,2.574-2.848,3.232-4.703c0.621-1.802,0.77-3.641,0.448-5.519l-0.295-1.252c-0.372-2.056-1.233-3.884-2.583-5.483
		C669.159,1573.582,667.494,1572.438,665.524,1571.74z"/>
	<path style="fill:#E8D8BD;" d="M622.921,1472.205c-1.173-1.054-2.344-2.109-3.517-3.164c-1.361-0.685-2.722-1.371-4.083-2.058
		c-2.175-0.848-4.397-1.125-6.665-0.828c-1.546-0.12-3.023,0.144-4.433,0.792c-1.565,0.283-2.955,0.937-4.17,1.964
		c-1.462,0.693-2.654,1.705-3.572,3.037c-1.209,1.034-2.079,2.3-2.611,3.799c-1.205,1.958-1.859,4.109-1.962,6.453
		c0.069,1.502,0.14,3.003,0.21,4.505c0.458,1.454,0.916,2.907,1.374,4.36c0.852,1.327,1.704,2.654,2.556,3.98
		c1.172,1.054,2.344,2.109,3.516,3.163c1.361,0.686,2.721,1.372,4.082,2.058c2.175,0.848,4.397,1.124,6.665,0.828
		c1.546,0.12,3.023-0.144,4.433-0.792c2.316-0.519,4.369-1.601,6.16-3.243l0.813-0.539c1.816-1.43,3.147-3.193,3.99-5.288
		c1.146-1.863,1.769-3.91,1.867-6.141c-0.066-1.428-0.133-2.858-0.2-4.287c-0.539-2.977-1.786-5.623-3.741-7.937L622.921,1472.205z"
		/>
	<path style="fill:#E8D8BD;" d="M727.356,1579.064c-0.587-0.295-1.173-0.592-1.759-0.887l-0.951-0.201
		c-0.944-0.283-1.908-0.32-2.893-0.11c-0.627,0.198-1.253,0.394-1.879,0.592c-1.26,0.597-2.287,1.469-3.079,2.617l-0.772,1.308
		l-0.041,0.07l-0.024,0.04c-0.552,0.94-0.489,0.83-0.662,1.644l-0.121,0.573c-0.071,0.605,0.006,1.184,0.233,1.737l0.191,0.599
		l0.038,0.098l0.136,0.348l0.275,0.708l0.077,0.195l0.038,0.099l0.017,0.043c0.521,1.314,0.985,1.624,1.868,2.419l0.758,0.682
		c0.82,0.602,1.723,0.965,2.711,1.089c0.628,0.217,1.268,0.268,1.922,0.156c0.995,0.036,1.945-0.176,2.85-0.638l0.858-0.55
		c0.917-0.482,1.657-1.171,2.222-2.067c0.296-0.587,0.591-1.172,0.886-1.759c0.366-0.938,0.485-1.895,0.358-2.873l-0.045-0.971
		c-0.142-1.024-0.523-1.937-1.143-2.737C728.94,1580.369,728.252,1579.628,727.356,1579.064z"/>
	<path style="fill:#E8D8BD;" d="M627.375,1637.5c-5.541,4.71,1.77,13.33,7.32,8.612
		C640.237,1641.401,632.925,1632.781,627.375,1637.5z"/>
	<path style="fill:#E8D8BD;" d="M740.746,1445.05c-5.255,4.467,1.678,12.641,6.942,8.167
		C752.943,1448.751,746.009,1440.576,740.746,1445.05z"/>
	<path style="fill:#E8D8BD;" d="M693.721,1342.134c-5.064,4.304,1.616,12.182,6.689,7.87
		C705.473,1345.7,698.792,1337.823,693.721,1342.134z"/>
	<path style="fill:#E8D8BD;" d="M535.487,1405.574c-1.391-0.937-2.922-1.477-4.594-1.618c-1.672-0.13-3.27,0.156-4.795,0.857
		c-1.581,0.748-2.869,1.843-3.863,3.284c-0.937,1.391-1.477,2.923-1.618,4.594c-0.099,1.284,0.123,2.51,0.513,3.706
		c0.16,0.561,0.323,1.122,0.484,1.682c0.218,0.691,0.436,1.381,0.654,2.072c0.455,1.075,1.138,1.956,2.05,2.643
		c0.491,0.575,1.093,0.989,1.805,1.241c0.931,0.573,1.953,0.884,3.067,0.933c0.713-0.033,1.427-0.067,2.141-0.1
		c0.691-0.218,1.381-0.435,2.072-0.653c1.075-0.455,1.956-1.138,2.643-2.05c0.817-0.76,1.394-1.686,1.73-2.775
		c0.25-0.527,0.501-1.054,0.749-1.582c0.578-1.118,0.995-2.292,1.104-3.576c0.13-1.672-0.156-3.271-0.857-4.795
		C538.023,1407.856,536.928,1406.568,535.487,1405.574z"/>
	<path style="fill:#E8D8BD;" d="M379.625,1386.3c-8.79,7.471,2.807,21.146,11.613,13.661
		C400.027,1392.49,388.43,1378.816,379.625,1386.3z"/>
	<path style="fill:#E8D8BD;" d="M1469.694,413.231c-1.179-0.726-2.474-1.12-3.886-1.182c-1.862-0.145-3.643,0.173-5.341,0.954
		c-1.761,0.833-3.196,2.052-4.302,3.657l-0.897,1.125c-0.402,0.798-0.804,1.595-1.206,2.393c-0.497,1.274-0.659,2.576-0.485,3.905
		c-0.07,0.906,0.084,1.773,0.464,2.598c0.305,1.358,0.938,2.561,1.901,3.611c0.686,0.618,1.373,1.236,2.06,1.854
		c0.798,0.402,1.595,0.804,2.393,1.206c1.275,0.497,2.577,0.659,3.906,0.485c1.351,0.05,2.644-0.239,3.875-0.867l1.255-0.703
		c1.762-0.834,3.196-2.053,4.302-3.657c1.044-1.55,1.645-3.256,1.802-5.117c-0.042-0.904-0.084-1.809-0.127-2.714
		c-0.341-1.884-1.13-3.559-2.367-5.024C1472.136,414.607,1471.021,413.765,1469.694,413.231z"/>
	<path style="fill:#FFFCF4;" d="M210.875,1333.261c0.993-22.761,8.246-44.773,16.565-65.983
		c13.259-33.805,29.41-66.474,48.217-97.537c7.266-11.999,15.19-24.042,26.551-32.269c12.139-8.792,27.302-12.508,42.25-13.615
		c71.756-5.315,136.738,45.419,177.452,104.746c4.741,6.907,9.398,14.341,10.114,22.688c1.967,22.946-25.488,37.135-48.5,38.005
		c-30.913,1.169-61.54-9.549-92.365-6.939c-55.967,4.737-99.148,51.842-125.968,101.208
		C236.394,1436.571,209.688,1360.474,210.875,1333.261z"/>
	<path style="fill:#FFFCF4;" d="M1245.945,403.033c5.51-42.72,25.881-84.584,60.442-110.29
		c34.563-25.707,83.963-32.654,121.738-11.953c6.92,3.793,13.572,8.62,17.593,15.411c4.412,7.451,5.211,16.503,4.789,25.153
		c-1.681,34.443-20.588,65.563-28.07,99.226c-8.06,36.266-2.575,74.187,6.199,110.287c1.604,6.599,3.312,13.574,1.337,20.072
		c-4.037,13.276-21.615,17.657-34.869,13.545c-13.253-4.112-23.858-13.891-35.801-20.957c-24.208-14.325-54.921-17.107-81.357-7.349
		C1246.285,547.772,1243.199,424.32,1245.945,403.033z"/>
	<path style="fill:#FFFCF4;" d="M928.353,1014.294c-73.141,55.284-151.566,104.139-218.269,167.042
		c-9.821,9.262-19.741,24.797-10.596,34.727c4.396,4.773,11.523,5.666,18.011,5.812c39.507,0.888,77.475-14.673,112.704-32.574
		c121.461-61.72,224.87-153.362,323.534-247.318c39.548-37.661,80.549-79.396,90.759-133.045
		c5.026-26.409-5.704-64.748-39.498-55.213c-30.492,8.604-59.113,60.319-79.868,82.682
		C1064.903,901.298,998.981,960.909,928.353,1014.294z"/>
</g>
</svg>
