<?xml version="1.0" encoding="utf-8"?>
<!-- Generator: Adobe Illustrator 27.5.0, SVG Export Plug-In . SVG Version: 6.00 Build 0)  -->
<svg version="1.1" id="Layer_1" xmlns="http://www.w3.org/2000/svg" xmlns:xlink="http://www.w3.org/1999/xlink" x="0px" y="0px"
	 viewBox="0 0 303.536 336.836" style="enable-background:new 0 0 303.536 336.836;" xml:space="preserve">
<g>
	<g>
		<g>
			<g>
				<path style="fill:#DE5B5C;" d="M284.763,307.25c-5.371-11.338-19.721-28.281-65.035-42.178
					c-45.318-13.895-55.754-3.154-56.055,4.598c0,0-0.025,13.873,4.61,28.707c4.637,14.838,12.192,20.008,30.684,25.176
					c16.503,4.613,48.046,8.59,63.966,6.705c9.119-2.111,16.227-5.689,21.257-9.248C286.17,317.957,287.617,313.277,284.763,307.25z
					"/>
				<path style="opacity:0.5;fill:#D23D3E;" d="M284.763,307.25c-5.371-11.338-19.721-28.281-65.035-42.178
					c-45.318-13.895-55.754-3.154-56.055,4.598c0,0-0.025,13.873,4.61,28.707c0.656,2.105,1.384,3.992,2.182,5.736
					c-0.401-1.895-0.625-3.811-0.616-5.73c0.025-5.668,1.681-12.934,7.73-14.934c2.588-0.857,5.526,0.399,8.168,0.41
					c6.06,0.027,66.305,16.131,80.797,33.98c3.268,4.025,3.573,7.844-1.125,10.732c-1.028,0.631-2.137,1.229-3.297,1.77
					c0.27-0.027,0.548-0.053,0.81-0.084c9.119-2.111,16.227-5.689,21.257-9.248C286.17,317.957,287.617,313.277,284.763,307.25z"/>
				<g>
					<path style="fill:#E4575A;" d="M298.339,257.699c-1.855-29.264-6.039-36.232-6.039-36.232c-0.01-0.076-0.017-0.144-0.023-0.217
						c-1.804-17.525-4.165-17.771-5.116-19c-0.259-0.33-0.413-0.73-0.429-1.563c0-0.039-0.003-0.078-0.003-0.123
						c0-4.178-2.79-25.081-23.222-63.176c-20.441-38.09-48.311-51.09-48.311-51.09c-12.076-5.572-30.192-7.434-37.16,11.613
						c-6.971,19.045-2.79,55.738-6.039,65.953c-2.256,7.09-3.17,15.97-4.76,26.174c-0.703,4.506-1.534,9.268-2.672,14.246
						c-0.006,0.016-0.008,0.031-0.01,0.047c-1.877,8.23-3.861,26.367-3.998,45.777c-0.068,9.492,0.305,19.281,1.354,28.369
						c1.056,9.154,2.789,17.592,5.441,24.281c10.684,26.939,36.23,25.078,68.275,28.797c10.514,1.219,19.621,0.48,27.305-1.299
						c-15.92,1.885-47.463-2.092-63.966-6.705c-18.491-5.168-26.047-10.338-30.684-25.176c-4.636-14.834-4.61-28.707-4.61-28.707
						c0.301-7.752,10.736-18.492,56.055-4.598c6.006,1.842,11.454,3.74,16.424,5.67c1.354,0.521,2.663,1.049,3.94,1.576
						c29.515,12.205,40.206,25.508,44.671,34.932c2.854,6.027,1.407,10.707-0.573,13.76c3.647-2.578,6.208-5.139,7.649-7.107
						C296.944,306.934,300.198,286.967,298.339,257.699z"/>
					<path style="fill:#952A31;" d="M245.808,332.42c-3.328,0-6.764-0.201-10.209-0.603c-4.523-0.522-8.914-0.938-13.16-1.336
						c-25.754-2.424-46.097-4.34-55.33-27.625c-2.481-6.256-4.316-14.447-5.457-24.346c-0.975-8.445-1.431-18.002-1.355-28.402
						c0.135-19.146,2.115-37.549,4.004-45.834c0.002-0.008,0.013-0.063,0.016-0.072c0.971-4.252,1.795-8.641,2.662-14.202
						c0.369-2.368,0.701-4.662,1.023-6.883c1.078-7.44,2.009-13.866,3.747-19.33c1.305-4.101,1.402-12.602,1.514-22.445
						c0.164-14.322,0.367-32.148,4.527-43.52c4.715-12.887,14.249-15.592,21.416-15.592c5.031,0,10.748,1.36,16.102,3.83
						c0.281,0.131,28.184,13.476,48.432,51.206c18.395,34.294,23.252,56.4,23.252,63.299l0.006,0.123
						c0.014,0.785,0.158,1.129,0.371,1.402c0.104,0.131,0.227,0.254,0.371,0.399c1.117,1.113,3.201,3.182,4.799,18.734
						c0.006,0.053,0.011,0.105,0.018,0.16c0.404,0.715,4.267,8.246,6.047,36.299c1.709,26.928-0.801,48.529-6.55,56.375
						c-0.976,1.332-3.272,4.033-7.711,7.168c-0.102,0.074-0.243,0.064-0.333-0.023c-0.091-0.088-0.107-0.227-0.039-0.332
						c1.834-2.828,3.418-7.467,0.557-13.508c-6.406-13.521-21.389-25.23-44.533-34.801c-1.311-0.541-2.634-1.072-3.934-1.574
						c-5.14-1.994-10.66-3.9-16.408-5.664c-14.52-4.451-26.574-6.709-35.831-6.709c-18.052,0-19.782,8.471-19.884,11.064
						c0,0.131,0.03,13.996,4.6,28.621c4.375,14.002,11.217,19.611,30.503,25.002c14.394,4.023,38.245,7.174,54.302,7.174
						c3.67,0,6.887-0.162,9.563-0.479c0.142-0.014,0.266,0.078,0.289,0.215c0.024,0.137-0.063,0.27-0.199,0.299
						C257.53,331.777,251.749,332.42,245.808,332.42z M199.204,82.753c-6.999,0-16.313,2.646-20.922,15.248
						c-4.13,11.286-4.334,29.064-4.496,43.346c-0.113,9.885-0.211,18.422-1.539,22.599c-1.725,5.424-2.652,11.829-3.728,19.245
						c-0.321,2.223-0.653,4.519-1.024,6.89c-0.869,5.574-1.694,9.973-2.676,14.264c-1.89,8.303-3.865,26.658-3.998,45.768
						c-0.076,10.379,0.379,19.914,1.352,28.336c1.135,9.855,2.96,18.002,5.423,24.217c9.115,22.984,29.316,24.887,54.893,27.295
						c4.249,0.398,8.642,0.813,13.171,1.338c3.426,0.396,6.84,0.598,10.148,0.598c4.309,0,8.531-0.338,12.607-1.012
						c-1.578,0.078-3.272,0.115-5.076,0.115c-16.096,0.002-40.012-3.16-54.442-7.191c-19.499-5.453-26.423-11.139-30.864-25.352
						c-4.594-14.703-4.621-28.647-4.621-28.787c0.106-2.725,1.887-11.58,20.407-11.58c9.308,0,21.417,2.266,35.985,6.734
						c5.76,1.766,11.291,3.674,16.443,5.674c1.303,0.506,2.631,1.037,3.945,1.58c23.268,9.621,38.344,21.418,44.807,35.063
						c2.621,5.535,1.635,9.941,0.055,12.922c3.715-2.775,5.694-5.115,6.574-6.314c4.451-6.074,8.484-23.986,6.449-56.031
						c-1.826-28.801-5.961-36.045-6.002-36.113c-0.019-0.031-0.031-0.066-0.035-0.102c-0.011-0.078-0.019-0.148-0.026-0.225
						c-1.58-15.367-3.573-17.348-4.646-18.414c-0.151-0.15-0.293-0.293-0.416-0.449c-0.328-0.42-0.469-0.918-0.482-1.719
						l-0.004-0.129c0-0.199-0.266-20.307-23.191-63.051c-20.16-37.567-47.911-50.847-48.189-50.978
						C209.801,84.098,204.16,82.753,199.204,82.753z"/>
				</g>
				<path style="fill:#EB8989;" d="M212.011,96.152c0,0-21.924-2.192-18.088,32.338c3.837,34.533,1.076,47.519-15.083,67.061
					c-16.159,19.543-20.544,56.812,4.121,56.812c24.665,0,65.773,12.607,86.601,29.051c20.829,16.443,31.243-18.637,19.184-66.32
					C276.688,167.407,247.089,99.442,212.011,96.152z"/>
				<path style="fill:#FDC8C8;" d="M274.532,173.896c-6.664-18.518-15.272-36.713-27.68-52.109
					c-5.617-6.968-11.748-13.899-19.05-19.14c-3.504-2.514-7.604-4.534-11.878-5.241c-4.471-0.737-8.885,1.124-12.624,3.382
					c-0.182,0.109-0.501,0.809-0.12,0.599c4.393-2.432,8.934-3.526,13.878-2.305c4.343,1.072,8.343,3.841,11.77,6.6
					c6.997,5.638,13.02,12.862,18.468,19.972c11.456,14.95,19.825,31.397,27.085,48.625
					C274.609,174.818,274.716,174.404,274.532,173.896z"/>
				<path style="fill:#FDC8C8;" d="M292.438,237.123c-0.104-0.363-0.198-0.398-0.143-0.094c2.111,11.631,2.926,26.488-2.845,37.33
					c-1.48,2.781-3.732,4.959-6.583,6.291c-3.561,1.666-7.168,0.809-10.529-0.904c-6.383-3.248-10.994-9.098-17.336-12.369
					c-0.237-0.123-0.693,0.523-0.479,0.67c6.605,4.467,11.537,11.357,19.115,14.361c6.272,2.484,12.328-1.117,15.813-6.32
					c3.682-5.494,4.628-12.438,4.949-18.895C294.728,250.559,294.296,243.529,292.438,237.123z"/>
				<path style="fill:#FDC8C8;" d="M206.682,254.484c-9.452-4.346-19.425-5.105-28.39-10.879
					c-5.785-3.727-8.875-10.305-8.857-17.084c0.02-7.416,3.703-14.457,6.019-21.346c0.114-0.342-0.269-0.065-0.334,0.101
					c-2.609,6.941-6.105,13.709-6.814,21.193c-0.61,6.424,1.926,12.85,6.619,17.23c4.091,3.814,9.784,5.535,15.08,6.895
					c5.549,1.424,11.157,2.486,16.621,4.246C207.13,255.004,207.177,254.713,206.682,254.484z"/>
			</g>
			<g>
				<g>
					<g>
						<g>
							<path style="fill:#B04C4B;" d="M16.804,200.688c0.002-0.043,0.004-0.082,0.004-0.123
								C16.808,200.564,16.798,200.604,16.804,200.688z"/>
							<path style="fill:#6F1110;" d="M16.804,200.93c-0.137,0-0.252-0.088-0.262-0.225c-0.008-0.111,0.006-0.18,0.012-0.205
								c0.031-0.131,0.152-0.215,0.286-0.197c0.132,0.016,0.231,0.127,0.231,0.262l-0.003,0.098
								c-0.006,0.139-0.121,0.268-0.259,0.268C16.807,200.93,16.806,200.93,16.804,200.93z"/>
						</g>
						<g>
							<path style="fill:#E4575A;" d="M29.507,209.863c8.701,4.367,18.924,6.314,28.447,7.928c16.09,2.723,32.56,2.82,48.553-0.586
								c11.201-2.383,23.339-5.598,32.476-12.875c-0.003-0.016-0.007-0.031-0.009-0.045c-3.719-16.266-4.183-30.202-7.434-40.42
								c-3.251-10.215,0.934-46.911-6.039-65.955c-6.969-19.047-25.084-17.186-37.16-11.613c0,0-27.868,12.999-48.309,51.091
								C19.6,175.48,16.808,196.385,16.808,200.564c0,0.041-0.002,0.08-0.004,0.123C16.856,201.271,17.794,203.977,29.507,209.863z"
								/>
							<path style="fill:#952A31;" d="M81.292,220.063L81.292,220.063c-7.623,0-15.49-0.676-23.381-2.012
								c-9.682-1.641-19.86-3.606-28.521-7.955c-11.667-5.861-12.782-8.668-12.846-9.387c-0.001-0.012,0-0.059,0.001-0.072
								l0.002-0.072c0-6.9,4.86-29.008,23.255-63.3c10.58-19.715,23.177-32.583,31.882-39.907
								c9.44-7.942,16.479-11.265,16.547-11.298c5.355-2.472,11.074-3.831,16.104-3.831c7.168,0,16.7,2.704,21.416,15.591
								c4.162,11.37,4.363,29.194,4.527,43.517c0.111,9.845,0.209,18.348,1.515,22.449c1.737,5.462,2.667,11.885,3.743,19.319
								c0.918,6.34,1.959,13.528,3.695,21.12c0.002,0.008,0.012,0.061,0.012,0.068c0.014,0.094-0.023,0.184-0.096,0.242
								c-9.025,7.189-20.994,10.463-32.584,12.926C98.458,219.188,89.956,220.063,81.292,220.063z M104.333,82.752
								c-4.955,0-10.596,1.345-15.881,3.783c-0.069,0.032-7.059,3.335-16.448,11.238c-8.665,7.293-21.206,20.107-31.741,39.739
								c-22.927,42.743-23.192,62.851-23.192,63.052l-0.003,0.098c0.039,0.465,0.839,3.078,12.558,8.965
								c8.596,4.316,18.73,6.271,28.374,7.906c7.861,1.33,15.698,2.004,23.293,2.004c8.627,0,17.093-0.869,25.16-2.588
								c11.473-2.441,23.313-5.672,32.238-12.723c-1.727-7.586-2.762-14.735-3.676-21.046c-1.072-7.414-2-13.814-3.725-19.235
								c-1.328-4.178-1.426-12.716-1.539-22.603c-0.162-14.282-0.364-32.059-4.496-43.343
								C120.644,85.398,111.333,82.752,104.333,82.752z"/>
						</g>
						<g>
							<path style="fill:#B04C4B;" d="M142.979,250.109c-1.803,8.826-6.877,25.619-20.164,33.477
								c-18.492,10.936-49.309,15.111-61.438,13.719c-12.129-1.393-15.311,2.586-22.469,5.768
								c-7.158,3.182-16.501,5.566-20.081,5.766c-3.579,0.199-7.555,4.174,3.182,11.332c10.736,7.158,25.849,9.145,34.596,8.949
								c8.747-0.199,21.673-2.186,32.609-2.586c10.936-0.397,31.811-3.182,41.155-17.496c5.669-8.684,9.285-21.672,11.255-30.559
								C142.673,269.391,143.046,259.602,142.979,250.109z"/>
							<path style="fill:#6F1110;" d="M55.423,329.395c-9.694,0-23.601-2.367-33.56-9.006c-6.623-4.414-7.446-7.42-6.971-9.162
								c0.465-1.705,2.304-2.561,3.92-2.65c3.374-0.19,12.611-2.465,19.989-5.744c1.592-0.707,2.986-1.453,4.333-2.176
								c3.905-2.092,7.276-3.898,13.609-3.898c1.433,0,3.001,0.096,4.663,0.287c1.487,0.172,3.256,0.256,5.258,0.256
								c12.544,0,38.844-3.783,56.018-13.94c13.1-7.748,18.179-24.193,20.039-33.303c0.027-0.133,0.151-0.219,0.283-0.209
								c0.133,0.012,0.236,0.125,0.236,0.26c0.072,10.412-0.383,19.969-1.355,28.4c-2.049,9.246-5.668,22.047-11.297,30.67
								c-4.127,6.324-10.896,11.059-20.119,14.074c-7.878,2.576-15.902,3.348-21.247,3.541c-5.495,0.203-11.458,0.803-17.222,1.379
								c-5.675,0.57-11.035,1.109-15.39,1.207C56.227,329.391,55.831,329.395,55.423,329.395z M56.744,297.281
								c-6.201,0-9.519,1.777-13.361,3.838c-1.355,0.727-2.758,1.479-4.369,2.193c-7.432,3.303-16.758,5.596-20.171,5.789
								c-1.43,0.078-3.048,0.809-3.444,2.264c-0.352,1.289,0.058,4.121,6.756,8.586c9.862,6.576,23.651,8.92,33.269,8.92
								c0.404,0,0.796-0.006,1.177-0.014c4.334-0.098,9.685-0.637,15.35-1.205c5.772-0.58,11.741-1.18,17.255-1.381
								c26.383-0.959,36.979-11.299,40.945-17.377c5.586-8.559,9.185-21.295,11.22-30.471c0.891-7.744,1.348-16.465,1.355-25.936
								c-2.232,9.457-7.555,24.096-19.773,31.324c-17.264,10.209-43.686,14.014-56.285,14.016c-2.022,0-3.811-0.09-5.318-0.262
								C59.705,297.379,58.156,297.281,56.744,297.281z"/>
						</g>
						<path style="opacity:0.5;fill:#B04C4B;" d="M122.815,283.586c-18.492,10.936-49.309,15.111-61.438,13.719
							c-12.129-1.393-15.311,2.586-22.469,5.768c-7.158,3.182-16.501,5.566-20.081,5.766c-3.579,0.199-7.555,4.174,3.182,11.332
							c2.658,1.772,5.584,3.227,8.616,4.41c-0.277-1.121-0.25-2.244,0.258-3.33c1.198-2.555,3.913-3.375,6.467-4.004
							c4.88-1.203,9.861-1.684,14.877-1.82c12.257-0.328,23.936-0.752,35.874-3.904c5.409-1.43,11.178-2.732,16.332-4.932
							c3.229-1.373,6.34-3.043,9.641-4.25c4.276-1.564,11.247-3.533,13.652,1.898c1.598,3.607-1.57,7.9-3.859,10.393
							c-1.578,1.719-3.299,3.313-5.115,4.795c4.57-2.506,8.671-5.873,11.618-10.389c5.669-8.684,9.285-21.672,11.255-30.559
							c1.049-9.088,1.422-18.877,1.355-28.369C141.177,258.936,136.102,275.729,122.815,283.586z"/>
					</g>
					<g>
						<g>
							<path style="fill:#E4575A;" d="M52.61,297.332c2.362-0.373,5.164-0.439,8.767-0.027c12.13,1.393,42.946-2.783,61.438-13.719
								c13.287-7.857,18.361-24.65,20.164-33.477c-0.139-19.41-2.123-37.549-3.997-45.779c-9.137,7.277-21.274,10.492-32.476,12.875
								c-15.992,3.406-32.463,3.309-48.553,0.586c-9.522-1.613-19.746-3.561-28.447-7.928c-11.713-5.887-12.651-8.592-12.703-9.176
								c-0.066,3.916-3.252-1.691-5.542,20.561c2.123,2.74,12.793,17.127,23.472,42.754C42.7,283.119,47.473,292.389,52.61,297.332z
								"/>
							<path style="fill:#952A31;" d="M66.665,297.828c-2.022,0-3.811-0.09-5.318-0.262c-1.622-0.186-3.154-0.281-4.555-0.281
								c-1.48,0-2.836,0.102-4.142,0.307c-0.08,0.012-0.164-0.012-0.223-0.07c-4.943-4.758-9.637-13.502-17.935-33.418
								c-10.671-25.609-21.397-40.059-23.438-42.697c-0.042-0.051-0.06-0.119-0.053-0.186c1.6-15.553,3.681-17.619,4.799-18.732
								c0.466-0.463,0.722-0.719,0.741-1.807c0.002-0.141,0.114-0.252,0.253-0.258c0.134,0,0.258,0.1,0.27,0.238
								c0.042,0.465,0.841,3.078,12.56,8.965c8.596,4.316,18.73,6.271,28.374,7.906c7.863,1.33,15.699,2.004,23.293,2.004
								c8.629,0,17.094-0.871,25.16-2.588c11.527-2.453,23.428-5.703,32.366-12.824c0.07-0.057,0.165-0.072,0.249-0.043
								c0.086,0.029,0.15,0.102,0.17,0.189c1.887,8.289,3.867,26.695,4.004,45.838c-1.884,9.252-7.017,25.853-20.291,33.703
								C105.685,294.022,79.264,297.828,66.665,297.828z M56.792,296.762c1.42,0,2.973,0.096,4.615,0.283
								c1.487,0.172,3.256,0.256,5.258,0.256c12.543,0,38.843-3.783,56.018-13.94c13.1-7.748,18.179-24.193,20.039-33.303
								c-0.139-18.746-2.053-36.818-3.904-45.266c-8.986,7.01-20.806,10.232-32.256,12.668c-8.103,1.727-16.604,2.602-25.269,2.602
								c-7.622,0-15.488-0.676-23.381-2.012c-9.682-1.641-19.86-3.606-28.521-7.955c-8.707-4.373-11.538-7.047-12.44-8.42
								c-0.15,0.559-0.431,0.84-0.778,1.185c-1.07,1.063-3.058,3.037-4.638,18.309c2.2,2.854,12.853,17.318,23.443,42.732
								c8.215,19.713,12.87,28.428,17.722,33.15C53.993,296.857,55.333,296.762,56.792,296.762z"/>
						</g>
						<g>
							<path style="fill:#E4575A;" d="M89.214,326.533c-10.936,0.4-23.861,2.387-32.609,2.586
								c-8.748,0.195-23.86-1.791-34.596-8.949c-10.736-7.158-6.76-11.133-3.182-11.332c3.58-0.199,12.923-2.584,20.081-5.766
								c5.032-2.236,8.111-4.857,13.702-5.74c-5.137-4.943-9.91-14.213-17.876-33.33c-10.678-25.627-21.349-40.014-23.472-42.754
								c-0.008,0.074-0.017,0.143-0.024,0.217c0,0-4.184,6.969-6.04,36.234c-1.86,29.266,1.393,49.234,6.501,56.203
								c5.109,6.967,24.156,21.363,56.21,17.65c32.046-3.717,57.592-1.857,68.276-28.793c2.65-6.689,4.386-15.127,5.438-24.281
								c-1.97,8.887-5.586,21.875-11.255,30.559C121.024,323.352,100.149,326.137,89.214,326.533z"/>
							<path style="fill:#952A31;" d="M57.7,332.418c-25.903,0-41.555-12.012-46.212-18.361c-5.753-7.846-8.263-29.449-6.551-56.375
								c1.778-28.027,5.636-35.568,6.047-36.299l0.018-0.162c0.01-0.107,0.086-0.195,0.188-0.227
								c0.104-0.029,0.213,0.008,0.279,0.094c2.049,2.645,12.81,17.145,23.507,42.814c8.267,19.84,12.929,28.539,17.815,33.242
								c0.072,0.068,0.099,0.172,0.069,0.266c-0.03,0.098-0.111,0.166-0.209,0.182c-3.778,0.598-6.453,2.025-9.286,3.539
								c-1.351,0.723-2.749,1.469-4.35,2.182c-7.432,3.303-16.758,5.596-20.171,5.789c-1.43,0.078-3.048,0.809-3.444,2.264
								c-0.352,1.289,0.058,4.121,6.756,8.586c9.862,6.576,23.651,8.92,33.269,8.92c0.403,0,0.796-0.006,1.177-0.014
								c4.334-0.098,9.685-0.637,15.351-1.205c5.771-0.58,11.74-1.18,17.254-1.381c26.383-0.959,36.979-11.299,40.945-17.377
								c5.586-8.559,9.185-21.295,11.22-30.471c0.03-0.139,0.161-0.228,0.299-0.203c0.138,0.023,0.234,0.15,0.218,0.289
								c-1.141,9.893-2.975,18.084-5.457,24.346c-9.234,23.283-29.577,25.199-55.333,27.623c-4.245,0.399-8.634,0.813-13.157,1.338
								C64.481,332.217,61.037,332.418,57.7,332.418z M11.357,221.803c-0.661,1.344-4.235,9.699-5.897,35.912
								c-2.038,32.043,1.997,49.955,6.451,56.031c4.603,6.277,20.095,18.148,45.788,18.148c3.317,0,6.742-0.203,10.179-0.6
								c4.528-0.527,8.919-0.939,13.168-1.34c25.577-2.406,45.778-4.309,54.894-27.293c2.028-5.117,3.623-11.537,4.756-19.137
								c-2.152,8.475-5.438,18.502-10.107,25.654c-4.127,6.324-10.896,11.059-20.119,14.074c-7.878,2.576-15.902,3.348-21.247,3.541
								c-5.495,0.203-11.456,0.803-17.222,1.379c-5.675,0.57-11.035,1.109-15.39,1.207c-0.384,0.01-0.781,0.014-1.188,0.014
								c-9.694,0-23.601-2.367-33.56-9.006c-6.623-4.414-7.446-7.42-6.971-9.162c0.465-1.705,2.304-2.561,3.92-2.65
								c3.374-0.19,12.611-2.465,19.989-5.744c1.584-0.703,2.973-1.445,4.316-2.164c2.745-1.467,5.345-2.853,8.942-3.506
								c-4.811-4.84-9.476-13.639-17.568-33.059C24.27,239.57,13.998,225.279,11.357,221.803z"/>
						</g>
					</g>
				</g>
				<path style="opacity:0.4;fill:#E4575A;" d="M89.214,326.533c-10.936,0.4-23.861,2.387-32.609,2.586
					c-8.748,0.195-23.86-1.791-34.596-8.949c-10.736-7.158-6.76-11.133-3.182-11.332c3.58-0.199,12.923-2.584,20.081-5.766
					c5.032-2.236,8.111-4.857,13.702-5.74c2.362-0.373,5.164-0.439,8.767-0.027c12.13,1.393,42.946-2.783,61.438-13.719
					c13.287-7.857,18.361-24.65,20.164-33.477c-0.139-19.41-2.123-37.549-3.997-45.779c-0.003-0.016-0.007-0.031-0.009-0.045
					c-3.719-16.266-4.183-30.202-7.434-40.42c-3.251-10.215,0.934-46.911-6.039-65.955c-6.969-19.047-25.084-17.186-37.16-11.613
					c0,0-27.868,12.999-48.309,51.091C19.6,175.48,16.808,196.385,16.808,200.564c0,0.041-0.002,0.08-0.004,0.123
					c-0.066,3.916-3.252-1.691-5.542,20.561c-0.008,0.074-0.017,0.143-0.024,0.217c0,0-4.184,6.969-6.04,36.234
					c-1.86,29.266,1.393,49.234,6.501,56.203c5.109,6.967,24.156,21.363,56.21,17.65c32.046-3.717,57.592-1.857,68.276-28.793
					c2.65-6.689,4.386-15.127,5.438-24.281c-1.97,8.887-5.586,21.875-11.255,30.559C121.024,323.352,100.149,326.137,89.214,326.533
					z M98.368,254.086c-1.831,9.945-6.219,18.09-16.712,20.754c-25.846,6.561-35.789,5.566-42.946-13.125
					c-1.804-4.707-3.943-9.275-6.216-13.773c-3.539-6.998-7.598-13.697-11.626-20.416c-2.106-3.51-7.16-14.039-1.307-16.393
					c0.671-0.271,1.484-0.432,2.461-0.467c5.385-0.182,10.491,4.078,15.213,6.172c6.472,2.869,13.09,5.516,19.944,7.32
					c8.521,2.242,16.564,1.908,25.251,1.627c8.005-0.262,12.536,3.295,14.101,11.08C97.658,242.484,99.429,248.314,98.368,254.086z
					 M30.36,163.491c25.053-53.386,39.069-61.14,55.174-70.981c13.547-8.278,20.281,7.155,15.664,27.996
					c-4.616,20.842-3.139,40.302-2.242,67.439c0.895,27.146-60.544,20.581-70.089,12.528
					C19.324,192.424,30.36,163.491,30.36,163.491z M10.079,297.705c-5.367-13.424-2.683-51.596-1.193-59.053
					c1.492-7.459,4.177-4.773,4.177-4.773c4.573,4.969,7.355,16.701,9.841,35.193c2.381,17.709,1.193,30.721-5.069,32.807
					C11.57,303.967,10.079,297.705,10.079,297.705z"/>
				<path style="opacity:0.6;fill:#E4575A;" d="M104.144,83.206c7.708,1.979,13.438,8.173,15.947,15.62
					c6.1,18.109-0.951,38.13-2.881,56.392c-0.801,7.566-1.264,15.466,0.289,22.969c0.776,3.754,1.906,7.59,4.103,10.782
					c1.41,2.053,4.088,5.742,7.016,5.668c4.379-0.113,5.941-7.438,6.695-11.224c-1.079-7.449-2.021-14.043-3.773-19.548
					c-3.251-10.215,0.934-46.911-6.039-65.955c-4.795-13.11-14.871-16.315-24.627-15.224
					C101.974,82.771,103.065,82.929,104.144,83.206z"/>
				<path style="fill:#E4575A;" d="M39.705,323.352c0,0,8.35,5.568,49.707-0.197c8.271-1.154,26.642-4.572,33.602-10.738
					c0,0-11.784,4.522-24.257,7.162C81.856,323.154,48.253,325.539,39.705,323.352z"/>
				<path style="fill:#E4575A;" d="M87.124,94.498c0,0-23.561,8.949-46.526,54.878c0,0-16.997,31.315-11.632,47.124
					c0,0,0.205-18.99,14.317-47.719C59.986,114.779,87.124,94.498,87.124,94.498z"/>
				<path style="fill:#E4575A;" d="M11.967,237.061c0,0-5.665,23.562-0.596,57.861c0,0,0.895,4.174,3.58,4.471
					C14.95,299.393,10.477,285.674,11.967,237.061z"/>
				<path style="fill:#E4575A;" d="M23.301,213.201c0,0-5.071,0.598-2.088,6.859c2.982,6.264,12.229,20.877,17.895,35.191
					c5.665,14.316,10.439,20.879,20.878,21.775c0,0-8.651-3.582-15.51-16.705c-6.86-13.123-14.315-29.523-18.193-36.086
					S20.914,216.184,23.301,213.201z"/>
				<g>
					<path style="fill:#F7B1A5;" d="M57.629,152.148c0.545,0.219,1.115,0.385,1.694,0.479c1.303,0.21,2.499,0.243,3.694,0.154
						c1.548,0.067,3.565,0.043,4.979-0.661c1.104,0.005,2.198,0.163,3.302,0.294c3.4,1.277,7.408,1.25,10.883-0.324
						c0.217,0.525,0.479,1.046,0.815,1.561c0.79,1.209,2.39,2.487,3.955,2.767c1.909,0.791,4.235,0.843,6.739,0.866
						c0.557-0.502,1.109-1.004,1.696-1.484c0.362-0.301,0.729-0.594,1.093-0.889c-1.486,0.001-2.988,0.05-4.443,0.004
						c-2.363-0.517-4.338-1.177-5.776-2.941c-3.577-8.145,3.324-12.424,9.089-17.112c1.336-0.951,2.383-1.725,2.808-2.149
						c1.635-1.628,2.991-3.593,3.558-5.703c1.154-0.056,3.293-1.278,3.594-1.486c0.068-0.044,0.152-0.106,0.228-0.158
						c0.737-0.825,1.366-1.716,1.795-2.677c-0.73,0.691-1.636,1.303-2.183,1.688c-0.693,0.489-1.395,0.938-2.187,1.242
						c-0.364,0.142-0.677,0.068-1.005,0.042c0.096-1.011-0.008-2.042-0.36-3.077c-0.076-0.69-0.22-1.383-0.397-2.076
						c0.006,2.378-0.549,4.689-1.705,6.773c-0.629,1.762-1.614,3.357-2.998,4.861c-4.471-5.225-3.248-13.704,0.918-18.748
						c-0.504,0.318-0.992,0.665-1.453,1.046c-4.02,5.282-5.444,13.752-0.459,18.718c-0.604,0.566-1.254,1.128-1.969,1.684
						c-0.775,0.605-1.553,1.199-2.328,1.791c-1.337,0.84-2.652,1.618-3.816,2.338c-0.455,0.281-1.874,1.304-3.068,2.478
						c0.513-3.365,0.248-6.707-0.474-10.035c-0.496-2.274-1.331-4.412-2.489-6.288c0.111-0.077,0.205-0.174,0.246-0.273
						c0.151-0.361,0.291-0.74,0.415-1.131c0.001-0.029-0.009-0.05-0.004-0.084c0.306-2.156,0.3-4.708-0.723-6.703
						c0.56,2.435-0.024,4.903-0.493,7.351c-1.705-2.423-4.018-4.302-6.911-5.332c-0.558-0.021-1.117-0.012-1.601,0.035
						c0.146,0.13,0.294,0.26,0.439,0.388c6.512,2.27,9.457,8.995,9.933,15.761c-2.317-0.253-4.845,0.571-7.235-0.176
						c-0.818-0.256-1.585-0.662-2.312-1.146c-1.666-0.623-3.167-1.636-3.911-3.03c0.051,0.334,0.086,0.668,0.167,0.996
						c1.224,1.601,2.583,3.039,4.412,4.07c2.869,1.618,5.9,0.691,8.933,0.577c0.049,2.067-0.109,4.109-0.475,5.997
						c-0.49,2.543-0.979,5.027-0.643,7.42c-2.387,0.832-4.955,1.281-7.426,1.049c-2.06,0.199-4.143,0.036-5.805-1.283
						c-2.211-1.75-3.719-4.098-5.057-6.546c0.5,1.629,0.835,3.329,1.872,4.767c0.811,1.124,1.626,1.974,2.569,2.657
						c-0.048,0.004-0.096-0.001-0.143,0.004c-4.021,0.354-9.426,1.751-12.588-1.655C55.596,150.091,56.521,151.22,57.629,152.148z"
						/>
					<path style="fill:#F7B1A5;" d="M113.26,225.055c-0.798-1.137-1.701-2.178-2.638-3.182c1.67,0.977,3.475,1.797,5.617,2.609
						c5.1,1.932,9.708,5.002,13.582,8.82c-0.229-0.594-0.422-1.129-0.539-1.344c-0.614-1.109-1.281-2.148-2.055-3.123
						c-2.022-1.855-4.324-3.377-6.941-4.648c-2.379-1.15-4.997-1.869-7.494-2.715c-9.158-3.104-14.876-12.387-17.824-21.119
						c-0.872-2.578-1.518-6.371-0.822-9.055c0.467-1.798,0.629-3.464-1.064-4.649c2.4-4.117,6.104-7.328,9.153-10.944
						c2.555-3.025,6.269-6.993,6.069-11.24c-0.171-3.604-2.546-5.156-5.818-6.146c-1.242-0.376-2.578-0.53-3.944-0.589
						c-0.956,0.774-1.9,1.563-2.835,2.362c1.385,0.023,2.805,0.081,4.237,0.288c10.688,1.548,2.076,12.715-1.748,17.263
						c-2.614,3.105-5.271,6.163-7.975,9.18c-1.067,0.487-1.808,1.391-2.21,2.457c-0.097,0.106-0.19,0.211-0.285,0.318
						c-3.695-0.091-7.134-0.511-10.209-3.401c-2.955-2.776-4.607-6.525-6.695-9.909c-0.48-0.953-1.007-1.893-1.633-2.809
						c-1.608-2.348-3.734-4.163-6.133-5.481c-0.005-1.15-0.194-2.266-0.549-3.303c-0.855-0.725-1.708-1.454-2.52-2.223
						c0.413,0.646,0.768,1.332,1.078,2.028c0.385,0.87,0.445,1.963,0.742,2.905c-2.63-1.18-5.532-1.773-8.429-1.781
						c-0.343,0.056-0.681,0.137-1,0.277c-0.418,0.184-0.819,0.398-1.224,0.611c8.363-0.021,14.577,4.001,18.491,11.273
						c-3.107,0.3-6.098,0.413-8.841-0.706c0.578,0.738,1.24,1.406,1.996,1.902c2.497,0.84,5.219,0.995,7.445-0.016
						c0.039,0.085,0.085,0.163,0.127,0.25c2.348,4.983,3.379,7.986,7.513,11.059c-3.353,0.709-6.519,1.803-8.009,2.299
						c-3.467,1.162-6.616,1.791-10.274,1.742c-0.111,0-0.211-0.014-0.318-0.018c-0.282-0.037-0.563-0.064-0.843-0.088
						c-1.794-0.279-3.19-1.143-4.328-2.326c-0.441-0.402-0.868-0.852-1.269-1.373c-1.884-2.42-3.556-7.469-6.647-8.354
						c-0.216-0.063-0.454-0.117-0.702-0.167c3.105,2.347,4.313,8.229,6.022,10.873c0.426,0.658,0.938,1.199,1.507,1.645
						c-0.27,0.105-0.536,0.221-0.798,0.34c-0.668,0.193-1.327,0.416-1.986,0.658c-1.143,0.414-2.573,1.307-4.003,1.877
						c-3.434,0.779-7.285-0.018-9.528-2.684c0.013,0.652,0.074,1.287,0.213,1.895c1.268,1.576,3.106,2.459,5.451,2.73
						c3.267,0.377,5.758-1.238,8.347-2.684c1.359-0.414,2.729-0.727,4.15-0.971c0.061-0.01,0.123-0.012,0.182-0.021
						c1.18,0.473,2.467,0.727,3.75,0.875c9.366,1.078,19.71-8.295,28.64-3.861c1.029,6.846-8.307,11.902-13.514,13.768
						c-6.711,2.402-14.151,2.77-21.197,3.244c-3.825,0.26-7.685,0.561-11.464,1.231c-5.129,0.908-8.018,3.844-10.753,8.084
						c1.71-1.408,3.355-3.162,5.375-4.111c-0.192,3.717-0.415,7.258-2.556,10.453c2.191-2.209,3.56-4.193,3.909-7.342
						c0.395-3.578,1.278-5.029,5.087-5.416c6.914-0.701,13.661-0.332,20.552-1.613c-5.626,2.508-11.312,5.508-14.177,11.246
						c-1.432,2.863-2.379,5.688-4.424,8.256c-1.952,2.453-5.646,3.002-8.468,4.059c-3.578,1.338-5.967,2.82-7.836,6.256
						c3.594-3.832,8.503-4.973,13.297-6.604c-4.49,5.066-10.794,13.098-4.955,19.77c-1.097-4.547-0.972-9.115,1.681-13.117
						c2.503-3.773,5.927-7.248,8.876-10.689c0.419,4.371,1.958,9.1,5.845,11.662c-2.459-4.658-4.88-9.658-3.593-15.057
						c1.238-5.201,5.33-9.168,9.862-11.703c2.563-1.43,5.326-2.447,8.082-3.438c0.068,4.23,1.373,8.262,1.199,12.529
						c-0.141,3.375-0.885,5.566-2.855,8.201c3.999-0.602,4.216-9.025,4.549-11.861c1.891,1.799,3.984,3.615,5.623,5.656
						c1.941,2.42,1.955,4.369,2.188,7.297c3.764-7.883-5.59-10.568-7.96-16.732c-2.053-5.346,1.577-7.119,5.845-8.684
						c4.772-1.752,8.926-4.955,11.482-9.357c0.892-1.535,2.791-4.832,4.913-3.078c1.382,1.144,1.653,3.965,2.161,5.584
						c1.305,4.164,3.045,8.213,3.752,12.545c1.62,9.92-2.813,19.557-8.086,27.73c-1.4,1.145-2.848,1.574-5.025,1.557
						c-0.305,0-0.59,0.037-0.885,0.059c-11.246-1.543-22.852,9.926-30.129,17.422c-0.167,0.387-0.3,0.777-0.406,1.17
						c2.672-2.404,5.457-4.885,8.383-7.191c-0.633,1.9-0.442,4.314-0.718,6.299c0.456-0.717,0.91-1.438,1.361-2.158
						c0.052-0.281,0.104-0.563,0.151-0.85c0.152-0.902,0.282-1.801,0.497-2.688c0.183-0.773,0.606-1.424,0.78-2.18
						c6.952-5.107,14.693-8.863,23.605-7.797c-2.689,4.336-4.568,9.07-5.113,13.812c-0.01,0.012-0.024,0.018-0.033,0.027
						c-3.908,4.783-10.094,6.949-13.923,11.797c-1.445,1.834-2.777,3.941-3.71,6.191c-0.08,0.488-0.117,0.973-0.102,1.447
						c0.003,0.183,0.07,0.726,0.147,1.387c2.333-5.022,5.163-8.963,10.003-12.455c2.779-2.006,5.578-3.728,7.471-6.48
						c-0.205,5.555,1.529,11.031,6.041,15.764c-0.651-1.195-1.244-2.402-1.766-3.629c-3.127-5.299-3.637-11.623-2.24-17.805
						c1.626-7.193,7.607-13.271,11.194-19.836c1.519,3.506,4.785,6.184,6.84,9.379c2.953,4.592,4.315,9.959,4.257,15.359
						c0.433-1.402,0.777-2.818,1.029-4.242c-0.115-3.061-0.745-6.025-1.944-9.066c-1.28-3.244-3.419-5.648-5.582-8.066
						c-0.669-1.123-1.323-2.26-1.836-3.473c-0.579-1.363-0.576-2.813-0.772-4.229c1.829-4.719,2.777-9.746,2.68-14.801
						c0.293-0.135,0.683-0.092,1.215,0.187c0.939,0.484,1.793,1.184,2.65,1.787c1.885,1.336,3.455,3.059,5.328,4.408
						c4.242,4.688,7.243,10.998,7.759,17.193c0.593-2.867,0.015-5.926-0.685-8.789C115.583,228.826,114.497,226.814,113.26,225.055z
						"/>
					<path style="fill:#A02132;" d="M56.634,151.351c0.546,0.221,1.115,0.387,1.695,0.48c1.305,0.212,2.498,0.243,3.693,0.153
						c1.549,0.068,3.564,0.046,4.98-0.661c1.104,0.005,2.198,0.165,3.301,0.294c3.399,1.28,7.408,1.25,10.886-0.323
						c0.213,0.525,0.477,1.047,0.814,1.562c0.788,1.208,2.389,2.487,3.953,2.766c1.912,0.792,4.236,0.844,6.74,0.867
						c0.555-0.502,1.109-1.004,1.695-1.485c0.363-0.299,0.729-0.592,1.094-0.888c-1.486,0.002-2.99,0.049-4.443,0.005
						c-2.363-0.52-4.338-1.179-5.777-2.94c-3.576-8.145,3.324-12.427,9.092-17.114c1.334-0.95,2.379-1.723,2.807-2.146
						c1.633-1.63,2.992-3.596,3.556-5.703c1.155-0.059,3.292-1.279,3.595-1.487c0.067-0.047,0.15-0.106,0.228-0.162
						c0.737-0.823,1.366-1.711,1.796-2.674c-0.732,0.692-1.638,1.304-2.184,1.689c-0.695,0.488-1.395,0.937-2.187,1.241
						c-0.364,0.141-0.678,0.066-1.006,0.042c0.099-1.01-0.006-2.044-0.36-3.077c-0.075-0.689-0.217-1.386-0.397-2.076
						c0.007,2.378-0.549,4.688-1.705,6.773c-0.627,1.762-1.613,3.357-2.996,4.862c-4.472-5.226-3.249-13.705,0.918-18.749
						c-0.505,0.32-0.993,0.666-1.454,1.044c-4.019,5.284-5.444,13.755-0.459,18.718c-0.604,0.569-1.256,1.129-1.968,1.686
						c-0.776,0.604-1.555,1.198-2.329,1.789c-1.336,0.84-2.652,1.618-3.818,2.34c-0.455,0.28-1.872,1.303-3.066,2.476
						c0.512-3.364,0.248-6.704-0.475-10.034c-0.494-2.276-1.33-4.414-2.49-6.287c0.111-0.077,0.207-0.175,0.248-0.273
						c0.152-0.362,0.29-0.74,0.414-1.132c0.002-0.029-0.008-0.049-0.004-0.083c0.307-2.158,0.301-4.71-0.722-6.705
						c0.56,2.438-0.026,4.903-0.493,7.351c-1.706-2.42-4.018-4.299-6.912-5.332c-0.557-0.021-1.115-0.012-1.599,0.037
						c0.143,0.128,0.292,0.259,0.437,0.388c6.512,2.267,9.459,8.994,9.934,15.758c-2.316-0.252-4.843,0.573-7.234-0.174
						c-0.818-0.255-1.588-0.66-2.313-1.146c-1.665-0.622-3.166-1.638-3.908-3.031c0.049,0.332,0.084,0.667,0.165,0.995
						c1.222,1.602,2.583,3.04,4.412,4.07c2.869,1.62,5.901,0.691,8.931,0.579c0.053,2.064-0.106,4.108-0.471,5.997
						c-0.492,2.541-0.982,5.024-0.645,7.418c-2.389,0.832-4.956,1.283-7.426,1.049c-2.059,0.199-4.143,0.035-5.807-1.28
						c-2.209-1.752-3.717-4.101-5.054-6.549c0.498,1.631,0.835,3.329,1.872,4.77c0.811,1.12,1.623,1.971,2.567,2.654
						c-0.046,0.007-0.095-0.001-0.144,0.005c-4.018,0.353-9.424,1.75-12.588-1.656C54.601,149.297,55.526,150.425,56.634,151.351z"
						/>
					<path style="fill:#A02132;" d="M112.764,224.459c-0.798-1.139-1.701-2.176-2.64-3.184c1.672,0.977,3.477,1.795,5.617,2.609
						c5.102,1.934,9.709,5.002,13.584,8.82c-0.23-0.596-0.423-1.129-0.541-1.342c-0.613-1.113-1.279-2.15-2.054-3.123
						c-2.022-1.855-4.323-3.377-6.942-4.645c-2.38-1.156-4.997-1.873-7.494-2.721c-9.156-3.104-14.877-12.385-17.822-21.119
						c-0.871-2.578-1.521-6.369-0.822-9.055c0.467-1.797,0.627-3.464-1.066-4.646c2.4-4.12,6.103-7.33,9.153-10.943
						c2.556-3.025,6.27-6.995,6.068-11.246c-0.169-3.601-2.545-5.151-5.816-6.143c-1.243-0.377-2.577-0.527-3.944-0.59
						c-0.953,0.776-1.9,1.564-2.836,2.364c1.386,0.024,2.807,0.08,4.238,0.288c10.689,1.546,2.077,12.713-1.748,17.262
						c-2.613,3.106-5.271,6.164-7.976,9.181c-1.067,0.485-1.807,1.388-2.209,2.456c-0.097,0.107-0.191,0.211-0.285,0.318
						c-3.695-0.09-7.135-0.51-10.21-3.398c-2.953-2.779-4.606-6.526-6.693-9.911c-0.48-0.953-1.006-1.893-1.633-2.811
						c-1.607-2.348-3.734-4.163-6.135-5.482c-0.004-1.15-0.193-2.264-0.547-3.304c-0.857-0.723-1.707-1.453-2.521-2.219
						c0.412,0.646,0.77,1.327,1.078,2.024c0.385,0.872,0.445,1.97,0.744,2.908c-2.631-1.18-5.53-1.773-8.43-1.781
						c-0.345,0.054-0.682,0.134-1.001,0.275c-0.42,0.186-0.819,0.4-1.224,0.611c8.363-0.018,14.576,4.003,18.492,11.274
						c-3.109,0.302-6.099,0.417-8.842-0.702c0.58,0.735,1.239,1.404,1.996,1.899c2.497,0.842,5.22,0.995,7.446-0.016
						c0.039,0.085,0.084,0.164,0.125,0.248c2.35,4.983,3.379,7.986,7.514,11.059c-3.354,0.712-6.52,1.804-8.008,2.302
						c-3.469,1.162-6.616,1.789-10.274,1.742c-0.11,0-0.211-0.014-0.318-0.02c-0.282-0.035-0.562-0.064-0.843-0.086
						c-1.793-0.279-3.19-1.146-4.327-2.326c-0.439-0.4-0.866-0.855-1.268-1.373c-1.885-2.419-3.558-7.471-6.647-8.355
						c-0.217-0.062-0.455-0.115-0.702-0.167c3.105,2.348,4.313,8.228,6.022,10.872c0.426,0.66,0.938,1.199,1.506,1.645
						c-0.27,0.107-0.536,0.223-0.798,0.34c-0.667,0.195-1.328,0.418-1.986,0.656c-1.143,0.42-2.573,1.309-4.004,1.881
						c-3.432,0.779-7.282-0.018-9.526-2.686c0.012,0.654,0.074,1.289,0.213,1.896c1.268,1.576,3.104,2.457,5.45,2.732
						c3.267,0.377,5.759-1.242,8.345-2.686c1.36-0.416,2.731-0.727,4.153-0.971c0.061-0.01,0.122-0.012,0.185-0.021
						c1.176,0.471,2.464,0.725,3.747,0.873c9.365,1.08,19.708-8.293,28.639-3.861c1.029,6.848-8.306,11.902-13.515,13.766
						c-6.708,2.408-14.149,2.773-21.195,3.246c-3.825,0.26-7.686,0.561-11.466,1.23c-5.131,0.91-8.018,3.846-10.754,8.086
						c1.712-1.408,3.356-3.162,5.375-4.111c-0.191,3.713-0.414,7.258-2.556,10.449c2.191-2.209,3.558-4.188,3.908-7.34
						c0.397-3.574,1.278-5.029,5.086-5.414c6.917-0.699,13.662-0.334,20.555-1.615c-5.627,2.508-11.313,5.508-14.179,11.246
						c-1.43,2.861-2.378,5.688-4.421,8.258c-1.954,2.451-5.647,3-8.47,4.057c-3.576,1.34-5.966,2.822-7.835,6.256
						c3.594-3.832,8.503-4.971,13.297-6.602c-4.492,5.063-10.794,13.096-4.955,19.773c-1.098-4.553-0.972-9.121,1.681-13.123
						c2.503-3.773,5.926-7.248,8.875-10.689c0.419,4.373,1.958,9.102,5.844,11.662c-2.457-4.658-4.878-9.656-3.591-15.055
						c1.238-5.203,5.33-9.168,9.861-11.705c2.563-1.43,5.326-2.445,8.082-3.436c0.07,4.229,1.373,8.262,1.198,12.527
						c-0.14,3.375-0.883,5.568-2.853,8.201c4-0.602,4.214-9.025,4.547-11.861c1.894,1.801,3.986,3.617,5.623,5.656
						c1.941,2.418,1.957,4.369,2.19,7.297c3.763-7.885-5.591-10.568-7.96-16.73c-2.055-5.346,1.576-7.119,5.843-8.686
						c4.774-1.75,8.927-4.953,11.483-9.357c0.891-1.533,2.789-4.834,4.912-3.076c1.382,1.143,1.653,3.963,2.162,5.584
						c1.303,4.164,3.045,8.213,3.752,12.543c1.619,9.92-2.814,19.561-8.087,27.73c-1.399,1.145-2.849,1.576-5.024,1.557
						c-0.305,0-0.591,0.037-0.885,0.061c-11.248-1.543-22.853,9.924-30.129,17.42c-0.167,0.387-0.299,0.777-0.406,1.172
						c2.673-2.406,5.458-4.887,8.383-7.191c-0.634,1.9-0.442,4.314-0.718,6.299c0.456-0.719,0.909-1.438,1.361-2.16
						c0.052-0.281,0.104-0.565,0.151-0.848c0.153-0.904,0.282-1.803,0.496-2.689c0.184-0.771,0.607-1.422,0.782-2.18
						c6.952-5.107,14.694-8.863,23.604-7.797c-2.689,4.336-4.567,9.072-5.113,13.811c-0.009,0.012-0.023,0.02-0.031,0.029
						c-3.91,4.785-10.092,6.949-13.922,11.799c-1.448,1.83-2.78,3.941-3.711,6.189c-0.08,0.488-0.117,0.973-0.104,1.445
						c0.004,0.186,0.068,0.727,0.148,1.389c2.334-5.019,5.165-8.963,10.004-12.451c2.779-2.006,5.578-3.732,7.471-6.482
						c-0.205,5.555,1.527,11.027,6.039,15.762c-0.65-1.195-1.243-2.398-1.766-3.629c-3.124-5.301-3.635-11.623-2.238-17.801
						c1.625-7.201,7.607-13.275,11.193-19.838c1.519,3.504,4.785,6.184,6.84,9.377c2.953,4.592,4.315,9.961,4.256,15.359
						c0.434-1.4,0.778-2.814,1.031-4.242c-0.115-3.059-0.746-6.025-1.945-9.064c-1.278-3.244-3.419-5.65-5.581-8.066
						c-0.671-1.125-1.323-2.262-1.838-3.475c-0.577-1.363-0.576-2.813-0.773-4.227c1.831-4.721,2.777-9.746,2.683-14.803
						c0.293-0.135,0.682-0.088,1.215,0.188c0.938,0.486,1.791,1.182,2.647,1.791c1.886,1.33,3.458,3.057,5.331,4.406
						c4.24,4.688,7.24,10.994,7.759,17.193c0.593-2.869,0.013-5.926-0.685-8.791C115.085,228.23,114.002,226.217,112.764,224.459z"
						/>
					<path style="fill:#952A31;" d="M56.634,151.351c0.546,0.221,1.115,0.387,1.695,0.48c1.305,0.212,2.498,0.243,3.693,0.153
						c1.549,0.068,3.564,0.046,4.98-0.661c1.104,0.005,2.198,0.165,3.301,0.294c3.399,1.28,7.408,1.25,10.886-0.323
						c0.213,0.525,0.477,1.047,0.814,1.562c0.788,1.208,2.389,2.487,3.953,2.766c1.912,0.792,4.236,0.844,6.74,0.867
						c0.555-0.502,1.109-1.004,1.695-1.485c0.363-0.299,0.729-0.592,1.094-0.888c-1.486,0.002-2.99,0.049-4.443,0.005
						c-2.363-0.52-4.338-1.179-5.777-2.94c-3.576-8.145,3.324-12.427,9.092-17.114c1.334-0.95,2.379-1.723,2.807-2.146
						c1.633-1.63,2.992-3.596,3.556-5.703c1.155-0.059,3.292-1.279,3.595-1.487c0.067-0.047,0.15-0.106,0.228-0.162
						c0.737-0.823,1.366-1.711,1.796-2.674c-0.732,0.692-1.638,1.304-2.184,1.689c-0.695,0.488-1.395,0.937-2.187,1.241
						c-0.364,0.141-0.678,0.066-1.006,0.042c0.099-1.01-0.006-2.044-0.36-3.077c-0.075-0.689-0.217-1.386-0.397-2.076
						c0.007,2.378-0.549,4.688-1.705,6.773c-0.627,1.762-1.613,3.357-2.996,4.862c-4.472-5.226-3.249-13.705,0.918-18.749
						c-0.505,0.32-0.993,0.666-1.454,1.044c-4.019,5.284-5.444,13.755-0.459,18.718c-0.604,0.569-1.256,1.129-1.968,1.686
						c-0.776,0.604-1.555,1.198-2.329,1.789c-1.336,0.84-2.652,1.618-3.818,2.34c-0.455,0.28-1.872,1.303-3.066,2.476
						c0.512-3.364,0.248-6.704-0.475-10.034c-0.494-2.276-1.33-4.414-2.49-6.287c0.111-0.077,0.207-0.175,0.248-0.273
						c0.152-0.362,0.29-0.74,0.414-1.132c0.002-0.029-0.008-0.049-0.004-0.083c0.307-2.158,0.301-4.71-0.722-6.705
						c0.56,2.438-0.026,4.903-0.493,7.351c-1.706-2.42-4.018-4.299-6.912-5.332c-0.557-0.021-1.115-0.012-1.599,0.037
						c0.143,0.128,0.292,0.259,0.437,0.388c6.512,2.267,9.459,8.994,9.934,15.758c-2.316-0.252-4.843,0.573-7.234-0.174
						c-0.818-0.255-1.588-0.66-2.313-1.146c-1.665-0.622-3.166-1.638-3.908-3.031c0.049,0.332,0.084,0.667,0.165,0.995
						c1.222,1.602,2.583,3.04,4.412,4.07c2.869,1.62,5.901,0.691,8.931,0.579c0.053,2.064-0.106,4.108-0.471,5.997
						c-0.492,2.541-0.982,5.024-0.645,7.418c-2.389,0.832-4.956,1.283-7.426,1.049c-2.059,0.199-4.143,0.035-5.807-1.28
						c-2.209-1.752-3.717-4.101-5.054-6.549c0.498,1.631,0.835,3.329,1.872,4.77c0.811,1.12,1.623,1.971,2.567,2.654
						c-0.046,0.007-0.095-0.001-0.144,0.005c-4.018,0.353-9.424,1.75-12.588-1.656C54.601,149.297,55.526,150.425,56.634,151.351z"
						/>
					<path style="fill:#952A31;" d="M112.764,224.459c-0.798-1.139-1.701-2.176-2.64-3.184c1.672,0.977,3.477,1.795,5.617,2.609
						c5.102,1.934,9.709,5.002,13.584,8.82c-0.23-0.596-0.423-1.129-0.541-1.342c-0.613-1.113-1.279-2.15-2.054-3.123
						c-2.022-1.855-4.323-3.377-6.942-4.645c-2.38-1.156-4.997-1.873-7.494-2.721c-9.156-3.104-14.877-12.385-17.822-21.119
						c-0.871-2.578-1.521-6.369-0.822-9.055c0.467-1.797,0.627-3.464-1.066-4.646c2.4-4.12,6.103-7.33,9.153-10.943
						c2.556-3.025,6.27-6.995,6.068-11.246c-0.169-3.601-2.545-5.151-5.816-6.143c-1.243-0.377-2.577-0.527-3.944-0.59
						c-0.953,0.776-1.9,1.564-2.836,2.364c1.386,0.024,2.807,0.08,4.238,0.288c10.689,1.546,2.077,12.713-1.748,17.262
						c-2.613,3.106-5.271,6.164-7.976,9.181c-1.067,0.485-1.807,1.388-2.209,2.456c-0.097,0.107-0.191,0.211-0.285,0.318
						c-3.695-0.09-7.135-0.51-10.21-3.398c-2.953-2.779-4.606-6.526-6.693-9.911c-0.48-0.953-1.006-1.893-1.633-2.811
						c-1.607-2.348-3.734-4.163-6.135-5.482c-0.004-1.15-0.193-2.264-0.547-3.304c-0.857-0.723-1.707-1.453-2.521-2.219
						c0.412,0.646,0.77,1.327,1.078,2.024c0.385,0.872,0.445,1.97,0.744,2.908c-2.631-1.18-5.53-1.773-8.43-1.781
						c-0.345,0.054-0.682,0.134-1.001,0.275c-0.42,0.186-0.819,0.4-1.224,0.611c8.363-0.018,14.576,4.003,18.492,11.274
						c-3.109,0.302-6.099,0.417-8.842-0.702c0.58,0.735,1.239,1.404,1.996,1.899c2.497,0.842,5.22,0.995,7.446-0.016
						c0.039,0.085,0.084,0.164,0.125,0.248c2.35,4.983,3.379,7.986,7.514,11.059c-3.354,0.712-6.52,1.804-8.008,2.302
						c-3.469,1.162-6.616,1.789-10.274,1.742c-0.11,0-0.211-0.014-0.318-0.02c-0.282-0.035-0.562-0.064-0.843-0.086
						c-1.793-0.279-3.19-1.146-4.327-2.326c-0.439-0.4-0.866-0.855-1.268-1.373c-1.885-2.419-3.558-7.471-6.647-8.355
						c-0.217-0.062-0.455-0.115-0.702-0.167c3.105,2.348,4.313,8.228,6.022,10.872c0.426,0.66,0.938,1.199,1.506,1.645
						c-0.27,0.107-0.536,0.223-0.798,0.34c-0.667,0.195-1.328,0.418-1.986,0.656c-1.143,0.42-2.573,1.309-4.004,1.881
						c-3.432,0.779-7.282-0.018-9.526-2.686c0.012,0.654,0.074,1.289,0.213,1.896c1.268,1.576,3.104,2.457,5.45,2.732
						c3.267,0.377,5.759-1.242,8.345-2.686c1.36-0.416,2.731-0.727,4.153-0.971c0.061-0.01,0.122-0.012,0.185-0.021
						c1.176,0.471,2.464,0.725,3.747,0.873c9.365,1.08,19.708-8.293,28.639-3.861c1.029,6.848-8.306,11.902-13.515,13.766
						c-6.708,2.408-14.149,2.773-21.195,3.246c-3.825,0.26-7.686,0.561-11.466,1.23c-5.131,0.91-8.018,3.846-10.754,8.086
						c1.712-1.408,3.356-3.162,5.375-4.111c-0.191,3.713-0.414,7.258-2.556,10.449c2.191-2.209,3.558-4.188,3.908-7.34
						c0.397-3.574,1.278-5.029,5.086-5.414c6.917-0.699,13.662-0.334,20.555-1.615c-5.627,2.508-11.313,5.508-14.179,11.246
						c-1.43,2.861-2.378,5.688-4.421,8.258c-1.954,2.451-5.647,3-8.47,4.057c-3.576,1.34-5.966,2.822-7.835,6.256
						c3.594-3.832,8.503-4.971,13.297-6.602c-4.492,5.063-10.794,13.096-4.955,19.773c-1.098-4.553-0.972-9.121,1.681-13.123
						c2.503-3.773,5.926-7.248,8.875-10.689c0.419,4.373,1.958,9.102,5.844,11.662c-2.457-4.658-4.878-9.656-3.591-15.055
						c1.238-5.203,5.33-9.168,9.861-11.705c2.563-1.43,5.326-2.445,8.082-3.436c0.07,4.229,1.373,8.262,1.198,12.527
						c-0.14,3.375-0.883,5.568-2.853,8.201c4-0.602,4.214-9.025,4.547-11.861c1.894,1.801,3.986,3.617,5.623,5.656
						c1.941,2.418,1.957,4.369,2.19,7.297c3.763-7.885-5.591-10.568-7.96-16.73c-2.055-5.346,1.576-7.119,5.843-8.686
						c4.774-1.75,8.927-4.953,11.483-9.357c0.891-1.533,2.789-4.834,4.912-3.076c1.382,1.143,1.653,3.963,2.162,5.584
						c1.303,4.164,3.045,8.213,3.752,12.543c1.619,9.92-2.814,19.561-8.087,27.73c-1.399,1.145-2.849,1.576-5.024,1.557
						c-0.305,0-0.591,0.037-0.885,0.061c-11.248-1.543-22.853,9.924-30.129,17.42c-0.167,0.387-0.299,0.777-0.406,1.172
						c2.673-2.406,5.458-4.887,8.383-7.191c-0.634,1.9-0.442,4.314-0.718,6.299c0.456-0.719,0.909-1.438,1.361-2.16
						c0.052-0.281,0.104-0.565,0.151-0.848c0.153-0.904,0.282-1.803,0.496-2.689c0.184-0.771,0.607-1.422,0.782-2.18
						c6.952-5.107,14.694-8.863,23.604-7.797c-2.689,4.336-4.567,9.072-5.113,13.811c-0.009,0.012-0.023,0.02-0.031,0.029
						c-3.91,4.785-10.092,6.949-13.922,11.799c-1.448,1.83-2.78,3.941-3.711,6.189c-0.08,0.488-0.117,0.973-0.104,1.445
						c0.004,0.186,0.068,0.727,0.148,1.389c2.334-5.019,5.165-8.963,10.004-12.451c2.779-2.006,5.578-3.732,7.471-6.482
						c-0.205,5.555,1.527,11.027,6.039,15.762c-0.65-1.195-1.243-2.398-1.766-3.629c-3.124-5.301-3.635-11.623-2.238-17.801
						c1.625-7.201,7.607-13.275,11.193-19.838c1.519,3.504,4.785,6.184,6.84,9.377c2.953,4.592,4.315,9.961,4.256,15.359
						c0.434-1.4,0.778-2.814,1.031-4.242c-0.115-3.059-0.746-6.025-1.945-9.064c-1.278-3.244-3.419-5.65-5.581-8.066
						c-0.671-1.125-1.323-2.262-1.838-3.475c-0.577-1.363-0.576-2.813-0.773-4.227c1.831-4.721,2.777-9.746,2.683-14.803
						c0.293-0.135,0.682-0.088,1.215,0.188c0.938,0.486,1.791,1.182,2.647,1.791c1.886,1.33,3.458,3.057,5.331,4.406
						c4.24,4.688,7.24,10.994,7.759,17.193c0.593-2.869,0.013-5.926-0.685-8.791C115.085,228.23,114.002,226.217,112.764,224.459z"
						/>
				</g>
			</g>
			<g>
				<path style="opacity:0.4;fill:#E4575A;" d="M170.673,189.705c2.168,2.816,4.57,7.891,8.408,5.801
					c2.838-1.543,5.959-5.97,7.48-8.742c3.691-6.722,6.374-14.597,6.514-22.311c0.183-9.714-2.33-19.108-4.387-28.525
					c-3.572-16.352-7.229-42.855,7.928-53.308c-7.648,0.735-14.778,4.894-18.58,15.292c-6.971,19.045-2.79,55.738-6.039,65.953
					c-1.895,5.951-2.845,13.173-4.04,21.372C168.724,186.83,169.616,188.337,170.673,189.705z"/>
				<path style="fill:#E4575A;" d="M174.36,307c0,0,5.816,10.289,24.903,14.91c19.089,4.623,47.271,8.5,59.053,6.412
					c0,0-24.306-0.445-47.271-5.814C188.08,317.141,179.28,312.369,174.36,307z"/>
			</g>
			<g>
				<g>
					<g>
						<path style="fill:#CC575A;" d="M200.829,158.215c13.85,0.84,19.918-5.514,18.711-9.081c-1.288-3.813-5.569-0.212-15.411-0.661
							c-5.104-0.229-9.186-1.235-11.95-2.151c-3.21-4.055-6.707-8.082-10.499-11.888c-18.261-18.32-21.861-20.15-22.745-24.453
							v-4.154l-0.017,0.003V4.678h-13.919V105.98v4.155c-0.884,4.307-4.483,6.137-22.744,24.456
							c-3.793,3.807-7.289,7.831-10.5,11.887c-2.762,0.917-6.846,1.921-11.949,2.153c-9.843,0.447-14.122-3.155-15.412,0.659
							c-1.206,3.568,4.861,9.921,18.709,9.081c-7.469,11.113-12.634,20.948-15.524,25.154c-4.923,7.158-0.896,9.844,2.147,8.969
							c3.044-0.871,11.125-11.355,19.324-22.392c8.203-11.033,20.281-24.902,29.379-30.718c9.096-5.816,18.959-5.348,27.077-0.155
							c9.097,5.814,21.175,19.682,29.378,30.717c8.203,11.036,16.281,21.518,19.326,22.393c3.043,0.871,7.066-1.813,2.148-8.971
							C213.464,179.162,208.302,169.326,200.829,158.215z"/>
						<path style="fill:#952A31;" d="M88.597,192.918c-1.397,0-2.582-0.668-3.168-1.781c-0.551-1.047-1.031-3.448,1.933-7.761
							c1.153-1.679,2.659-4.237,4.565-7.476c2.823-4.798,6.322-10.744,10.666-17.238c-0.656,0.03-1.305,0.047-1.938,0.047
							c-10.749,0-14.688-4.324-15.638-5.648c-0.953-1.329-1.263-2.697-0.871-3.854c0.462-1.367,1.316-1.951,2.857-1.951
							c0.871,0,1.913,0.173,3.23,0.391c2.045,0.339,4.588,0.762,7.85,0.762c0.566,0,1.143-0.015,1.711-0.039
							c5.143-0.233,9.246-1.273,11.805-2.114c3.438-4.34,6.959-8.326,10.471-11.85c5.851-5.87,10.232-10.082,13.433-13.155
							c6.821-6.559,8.656-8.321,9.24-11.167l-0.005-4.103V4.678c0-0.145,0.117-0.262,0.262-0.262h13.919
							c0.145,0,0.263,0.117,0.263,0.262v101.062c0.011,0.028,0.017,0.057,0.017,0.087v4.154c0.579,2.791,2.411,4.553,9.23,11.105
							c3.2,3.077,7.583,7.289,13.438,13.163c3.499,3.508,7.021,7.495,10.472,11.848c2.559,0.842,6.661,1.881,11.803,2.113
							c0.573,0.027,1.152,0.039,1.721,0.039c3.258,0,5.799-0.42,7.842-0.758c1.318-0.218,2.359-0.391,3.23-0.391
							c1.54,0,2.395,0.582,2.855,1.948c0.391,1.156,0.082,2.525-0.871,3.854c-0.951,1.324-4.889,5.65-15.643,5.65
							c-0.631,0-1.279-0.017-1.934-0.048c4.343,6.49,7.84,12.434,10.662,17.23c1.908,3.243,3.416,5.804,4.572,7.484
							c2.963,4.314,2.482,6.712,1.93,7.76c-0.586,1.115-1.77,1.779-3.166,1.779c0,0,0,0-0.001,0c-0.405,0-0.808-0.057-1.2-0.17
							c-2.903-0.832-9.881-9.591-19.465-22.487c-8.159-10.978-20.144-24.795-29.309-30.653c-4.102-2.623-8.676-4.009-13.228-4.009
							c-4.679,0-9.244,1.401-13.567,4.166c-9.16,5.855-21.146,19.674-29.309,30.653c-9.582,12.895-16.559,21.654-19.463,22.488
							C89.407,192.857,89.003,192.918,88.597,192.918z M103.102,158.108c0.095,0,0.182,0.049,0.229,0.133
							c0.05,0.086,0.046,0.192-0.01,0.275c-4.471,6.653-8.061,12.75-10.942,17.65c-1.911,3.248-3.421,5.813-4.585,7.506
							c-2.809,4.086-2.396,6.275-1.9,7.22c0.494,0.939,1.504,1.5,2.703,1.5c0.357,0,0.713-0.053,1.058-0.15
							c2.925-0.836,10.949-11.212,19.185-22.297c8.191-11.016,20.229-24.887,29.448-30.781c4.409-2.819,9.069-4.249,13.85-4.249
							c4.652,0,9.325,1.416,13.511,4.093c9.225,5.896,21.26,19.768,29.446,30.782c8.237,11.085,16.265,21.458,19.189,22.298
							c0.344,0.098,0.699,0.146,1.056,0.146l0,0c1.197,0,2.209-0.559,2.702-1.498c0.497-0.943,0.909-3.134-1.897-7.219
							c-1.167-1.695-2.678-4.263-4.592-7.516c-2.883-4.897-6.47-10.993-10.939-17.641c-0.056-0.082-0.06-0.189-0.01-0.275
							c0.049-0.087,0.137-0.148,0.244-0.131c0.822,0.049,1.639,0.074,2.428,0.074c8.347,0,13.334-2.807,15.217-5.433
							c0.852-1.188,1.136-2.387,0.801-3.379c-0.389-1.145-1.049-1.592-2.359-1.592c-0.828,0-1.851,0.169-3.145,0.383
							c-2.061,0.341-4.627,0.766-7.928,0.766c-0.577,0-1.163-0.014-1.744-0.04c-5.252-0.237-9.436-1.308-12.02-2.163
							c-0.048-0.018-0.092-0.047-0.123-0.087c-3.454-4.361-6.98-8.354-10.48-11.866c-5.851-5.869-10.23-10.079-13.43-13.153
							c-6.911-6.643-8.769-8.429-9.385-11.432l-0.006-4.12c-0.011-0.025-0.018-0.055-0.018-0.084V4.94h-13.395v105.194
							c-0.621,3.059-2.48,4.845-9.396,11.492c-3.197,3.073-7.576,7.283-13.424,13.148c-3.514,3.526-7.039,7.518-10.478,11.866
							c-0.032,0.04-0.075,0.07-0.123,0.086c-2.586,0.856-6.769,1.927-12.021,2.166c-0.576,0.025-1.16,0.038-1.734,0.038
							c-3.305,0-5.871-0.426-7.936-0.768c-1.293-0.214-2.316-0.383-3.145-0.383c-1.312,0-1.973,0.446-2.361,1.594
							c-0.334,0.991-0.051,2.191,0.801,3.379c1.884,2.626,6.869,5.431,15.212,5.431c0.791,0,1.61-0.025,2.434-0.076
							C103.093,158.108,103.097,158.108,103.102,158.108z"/>
					</g>
					<g style="opacity:0.4;">
						<path style="fill:#CC575A;" d="M131.173,135.856c-16.902,10.34-44.936,55.87-44.936,55.87s-0.01,0.014-0.013,0.018
							c0.896,0.865,2.274,1.104,3.501,0.75c3.044-0.871,11.125-11.355,19.324-22.392c8.203-11.033,20.281-24.902,29.379-30.718
							c6.334-4.051,13.041-5.047,19.271-3.526C150.042,132.544,139.97,130.473,131.173,135.856z"/>
						<path style="fill:#CC575A;" d="M201.108,152.51c0,0-2.682-1.196-1.938,0.446c0.494,1.087,1.197,3.353,2.35,5.278
							c13.346,0.587,19.207-5.593,18.02-9.101C219.54,149.134,210.505,153.701,201.108,152.51z"/>
						<path style="fill:#CC575A;" d="M105.374,151.464c-7.801,2.984-17.007-0.65-20.842-2.488c-0.047,0.105-0.098,0.196-0.139,0.314
							c-1.206,3.568,4.861,9.921,18.709,9.081c-0.156,0.233-0.305,0.462-0.46,0.694
							C107.007,154.223,105.374,151.464,105.374,151.464z"/>
						<path style="fill:#CC575A;" d="M200.829,158.215c0.038,0.001,0.071,0.001,0.105,0.001c-1.273-1.763-2.495-3.564-3.819-5.3
							c-1.637-2.142-3.412-4.168-4.69-6.518c-0.079-0.025-0.167-0.051-0.245-0.077c-3.21-4.055-6.707-8.082-10.499-11.888
							c-18.261-18.32-21.861-20.15-22.745-24.453v-4.154l-0.017,0.003V4.678h-6.571v104.733c0,0-0.895,7.156,3.578,10.44
							c4.475,3.278,26.247,20.279,41.16,41.454c10.916,15.502,17.513,26.04,20.266,30.579c1.621-1.131,2.193-3.879-0.992-8.516
							C213.464,179.162,208.302,169.326,200.829,158.215z"/>
					</g>
					<g>
						<g>
							<g>
								<path style="fill:#F7B1A5;" d="M164.271,11.515c0,2.35-1.904,4.252-4.253,4.252h-16.105c-2.347,0-4.251-1.902-4.251-4.252
									l0,0c0-2.344,1.904-4.249,4.251-4.249h16.105C162.367,7.266,164.271,9.171,164.271,11.515L164.271,11.515z"/>
								<path style="fill:#DB7057;" d="M160.019,16.028h-16.105c-2.487,0-4.513-2.024-4.513-4.514c0-2.486,2.025-4.511,4.513-4.511
									h16.105c2.489,0,4.514,2.024,4.514,4.511C164.532,14.004,162.508,16.028,160.019,16.028z M143.914,7.529
									c-2.199,0-3.987,1.787-3.987,3.985c0,2.2,1.788,3.989,3.987,3.989h16.105c2.2,0,3.99-1.789,3.99-3.989
									c0-2.198-1.79-3.985-3.99-3.985H143.914z"/>
							</g>
							<path style="fill:#F7B1A5;" d="M139.677,11.633c0.063,2.292,1.932,4.134,4.237,4.134h16.105c2.307,0,4.178-1.842,4.239-4.134
								H139.677z"/>
							<path style="fill:#F7B1A5;" d="M141.007,10.398c0,0,0.696-1.909,2.784-2.072h16.152L143.89,8.907
								C143.89,8.907,142.598,8.907,141.007,10.398z"/>
						</g>
						<g>
							<g>
								<path style="fill:#F7B1A5;" d="M164.271,22.591c0,2.345-1.904,4.25-4.253,4.25h-16.105c-2.347,0-4.251-1.905-4.251-4.25l0,0
									c0-2.349,1.904-4.251,4.251-4.251h16.105C162.367,18.34,164.271,20.242,164.271,22.591L164.271,22.591z"/>
								<path style="fill:#DB7057;" d="M160.019,27.103h-16.105c-2.487,0-4.513-2.023-4.513-4.512c0-2.489,2.025-4.513,4.513-4.513
									h16.105c2.489,0,4.514,2.024,4.514,4.513C164.532,25.079,162.508,27.103,160.019,27.103z M143.914,18.602
									c-2.199,0-3.987,1.789-3.987,3.989c0,2.199,1.788,3.988,3.987,3.988h16.105c2.2,0,3.99-1.789,3.99-3.988
									c0-2.2-1.79-3.989-3.99-3.989H143.914z"/>
							</g>
							<path style="fill:#F7B1A5;" d="M139.677,22.708c0.063,2.291,1.932,4.133,4.237,4.133h16.105c2.307,0,4.178-1.842,4.239-4.133
								H139.677z"/>
							<path style="fill:#F7B1A5;" d="M141.007,21.473c0,0,0.696-1.91,2.784-2.074h16.152l-16.054,0.582
								C143.89,19.981,142.598,19.981,141.007,21.473z"/>
						</g>
						<g>
							<g>
								<path style="fill:#F7B1A5;" d="M164.271,33.663c0,2.349-1.904,4.252-4.253,4.252h-16.105c-2.347,0-4.251-1.903-4.251-4.252
									l0,0c0-2.348,1.904-4.251,4.251-4.251h16.105C162.367,29.412,164.271,31.315,164.271,33.663L164.271,33.663z"/>
								<path style="fill:#DB7057;" d="M160.019,38.177h-16.105c-2.487,0-4.513-2.025-4.513-4.514c0-2.487,2.025-4.512,4.513-4.512
									h16.105c2.489,0,4.514,2.024,4.514,4.512C164.532,36.151,162.508,38.177,160.019,38.177z M143.914,29.676
									c-2.199,0-3.987,1.79-3.987,3.987c0,2.2,1.788,3.99,3.987,3.99h16.105c2.2,0,3.99-1.79,3.99-3.99
									c0-2.197-1.79-3.987-3.99-3.987H143.914z"/>
							</g>
							<path style="fill:#F7B1A5;" d="M139.677,33.78c0.063,2.293,1.932,4.135,4.237,4.135h16.105c2.307,0,4.178-1.842,4.239-4.135
								H139.677z"/>
							<path style="fill:#F7B1A5;" d="M141.007,32.545c0,0,0.696-1.909,2.784-2.072h16.152l-16.054,0.582
								C143.89,31.055,142.598,31.055,141.007,32.545z"/>
						</g>
						<g>
							<g>
								<path style="fill:#F7B1A5;" d="M164.271,44.737c0,2.346-1.904,4.251-4.253,4.251h-16.105c-2.347,0-4.251-1.905-4.251-4.251
									l0,0c0-2.349,1.904-4.252,4.251-4.252h16.105C162.367,40.485,164.271,42.389,164.271,44.737L164.271,44.737z"/>
								<path style="fill:#DB7057;" d="M160.019,49.25h-16.105c-2.487,0-4.513-2.025-4.513-4.513c0-2.488,2.025-4.514,4.513-4.514
									h16.105c2.489,0,4.514,2.025,4.514,4.514C164.532,47.225,162.508,49.25,160.019,49.25z M143.914,40.749
									c-2.199,0-3.987,1.789-3.987,3.988c0,2.2,1.788,3.987,3.987,3.987h16.105c2.2,0,3.99-1.787,3.99-3.987
									c0-2.199-1.79-3.988-3.99-3.988H143.914z"/>
							</g>
							<path style="fill:#F7B1A5;" d="M139.677,44.853c0.063,2.294,1.932,4.136,4.237,4.136h16.105c2.307,0,4.178-1.842,4.239-4.136
								H139.677z"/>
							<path style="fill:#F7B1A5;" d="M141.007,43.618c0,0,0.696-1.908,2.784-2.073h16.152l-16.054,0.582
								C143.89,42.127,142.598,42.127,141.007,43.618z"/>
						</g>
						<g>
							<g>
								<path style="fill:#F7B1A5;" d="M164.271,55.811c0,2.347-1.904,4.251-4.253,4.251h-16.105c-2.347,0-4.251-1.904-4.251-4.251
									l0,0c0-2.348,1.904-4.251,4.251-4.251h16.105C162.367,51.56,164.271,53.463,164.271,55.811L164.271,55.811z"/>
								<path style="fill:#DB7057;" d="M160.019,60.322h-16.105c-2.487,0-4.513-2.023-4.513-4.512c0-2.488,2.025-4.515,4.513-4.515
									h16.105c2.489,0,4.514,2.026,4.514,4.515C164.532,58.299,162.508,60.322,160.019,60.322z M143.914,51.821
									c-2.199,0-3.987,1.79-3.987,3.989c0,2.199,1.788,3.988,3.987,3.988h16.105c2.2,0,3.99-1.789,3.99-3.988
									c0-2.199-1.79-3.989-3.99-3.989H143.914z"/>
							</g>
							<path style="fill:#F7B1A5;" d="M139.677,55.928c0.063,2.291,1.932,4.134,4.237,4.134h16.105c2.307,0,4.178-1.843,4.239-4.134
								H139.677z"/>
							<path style="fill:#F7B1A5;" d="M141.007,54.692c0,0,0.696-1.909,2.784-2.074h16.152l-16.054,0.584
								C143.89,53.202,142.598,53.202,141.007,54.692z"/>
						</g>
						<g>
							<g>
								<path style="fill:#F7B1A5;" d="M164.271,66.883c0,2.348-1.904,4.251-4.253,4.251h-16.105c-2.347,0-4.251-1.903-4.251-4.251
									l0,0c0-2.347,1.904-4.25,4.251-4.25h16.105C162.367,62.633,164.271,64.536,164.271,66.883L164.271,66.883z"/>
								<path style="fill:#DB7057;" d="M160.019,71.398h-16.105c-2.487,0-4.513-2.025-4.513-4.515c0-2.488,2.025-4.512,4.513-4.512
									h16.105c2.489,0,4.514,2.023,4.514,4.512C164.532,69.372,162.508,71.398,160.019,71.398z M143.914,62.897
									c-2.199,0-3.987,1.787-3.987,3.986s1.788,3.989,3.987,3.989h16.105c2.2,0,3.99-1.79,3.99-3.989s-1.79-3.986-3.99-3.986
									H143.914z"/>
							</g>
							<path style="fill:#F7B1A5;" d="M139.677,67c0.063,2.292,1.932,4.134,4.237,4.134h16.105c2.307,0,4.178-1.842,4.239-4.134
								H139.677z"/>
							<path style="fill:#F7B1A5;" d="M141.007,65.765c0,0,0.696-1.909,2.784-2.072h16.152l-16.054,0.582
								C143.89,64.274,142.598,64.274,141.007,65.765z"/>
						</g>
						<g>
							<g>
								<path style="fill:#F7B1A5;" d="M164.271,77.956c0,2.349-1.904,4.25-4.253,4.25h-16.105c-2.347,0-4.251-1.901-4.251-4.25l0,0
									c0-2.346,1.904-4.249,4.251-4.249h16.105C162.367,73.707,164.271,75.61,164.271,77.956L164.271,77.956z"/>
								<path style="fill:#DB7057;" d="M160.019,82.47h-16.105c-2.487,0-4.513-2.024-4.513-4.514c0-2.489,2.025-4.513,4.513-4.513
									h16.105c2.489,0,4.514,2.023,4.514,4.513C164.532,80.445,162.508,82.47,160.019,82.47z M143.914,73.969
									c-2.199,0-3.987,1.788-3.987,3.987c0,2.199,1.788,3.988,3.987,3.988h16.105c2.2,0,3.99-1.789,3.99-3.988
									c0-2.199-1.79-3.987-3.99-3.987H143.914z"/>
							</g>
							<path style="fill:#F7B1A5;" d="M139.677,78.073c0.063,2.291,1.932,4.133,4.237,4.133h16.105c2.307,0,4.178-1.842,4.239-4.133
								H139.677z"/>
							<path style="fill:#F7B1A5;" d="M141.007,76.838c0,0,0.696-1.909,2.784-2.072h16.152l-16.054,0.582
								C143.89,75.348,142.598,75.348,141.007,76.838z"/>
						</g>
						<g>
							<g>
								<path style="fill:#F7B1A5;" d="M164.271,89.029c0,2.347-1.904,4.25-4.253,4.25h-16.105c-2.347,0-4.251-1.903-4.251-4.25l0,0
									c0-2.346,1.904-4.249,4.251-4.249h16.105C162.367,84.78,164.271,86.684,164.271,89.029L164.271,89.029z"/>
								<path style="fill:#DB7057;" d="M160.019,93.542h-16.105c-2.487,0-4.513-2.024-4.513-4.513c0-2.487,2.025-4.511,4.513-4.511
									h16.105c2.489,0,4.514,2.023,4.514,4.511C164.532,91.518,162.508,93.542,160.019,93.542z M143.914,85.042
									c-2.199,0-3.987,1.789-3.987,3.987c0,2.198,1.788,3.988,3.987,3.988h16.105c2.2,0,3.99-1.79,3.99-3.988
									c0-2.198-1.79-3.987-3.99-3.987H143.914z"/>
							</g>
							<path style="fill:#F7B1A5;" d="M139.677,89.148c0.063,2.292,1.932,4.132,4.237,4.132h16.105c2.307,0,4.178-1.84,4.239-4.132
								H139.677z"/>
							<path style="fill:#F7B1A5;" d="M141.007,87.91c0,0,0.696-1.909,2.784-2.072h16.152L143.89,86.42
								C143.89,86.42,142.598,86.42,141.007,87.91z"/>
						</g>
						<g>
							<g>
								<path style="fill:#F7B1A5;" d="M164.271,100.103c0,2.35-1.904,4.251-4.253,4.251h-16.105c-2.347,0-4.251-1.901-4.251-4.251
									l0,0c0-2.346,1.904-4.251,4.251-4.251h16.105C162.367,95.852,164.271,97.757,164.271,100.103L164.271,100.103z"/>
								<path style="fill:#DB7057;" d="M160.019,104.616h-16.105c-2.487,0-4.513-2.023-4.513-4.514c0-2.488,2.025-4.514,4.513-4.514
									h16.105c2.489,0,4.514,2.025,4.514,4.514C164.532,102.593,162.508,104.616,160.019,104.616z M143.914,96.114
									c-2.199,0-3.987,1.79-3.987,3.988c0,2.2,1.788,3.988,3.987,3.988h16.105c2.2,0,3.99-1.788,3.99-3.988
									c0-2.198-1.79-3.988-3.99-3.988H143.914z"/>
							</g>
							<path style="fill:#F7B1A5;" d="M139.677,100.219c0.063,2.292,1.932,4.135,4.237,4.135h16.105
								c2.307,0,4.178-1.843,4.239-4.135H139.677z"/>
							<path style="fill:#F7B1A5;" d="M141.007,98.985c0,0,0.696-1.909,2.784-2.073h16.152l-16.054,0.58
								C143.89,97.492,142.598,97.492,141.007,98.985z"/>
						</g>
						<g>
							<g>
								<path style="fill:#F7B1A5;" d="M164.271,111.176c0,2.348-1.904,4.249-4.253,4.249h-16.105c-2.347,0-4.251-1.901-4.251-4.249
									l0,0c0-2.347,1.904-4.25,4.251-4.25h16.105C162.367,106.926,164.271,108.829,164.271,111.176L164.271,111.176z"/>
								<path style="fill:#DB7057;" d="M160.019,115.689h-16.105c-2.487,0-4.513-2.024-4.513-4.513c0-2.488,2.025-4.512,4.513-4.512
									h16.105c2.489,0,4.514,2.023,4.514,4.512C164.532,113.665,162.508,115.689,160.019,115.689z M143.914,107.188
									c-2.199,0-3.987,1.789-3.987,3.988s1.788,3.987,3.987,3.987h16.105c2.2,0,3.99-1.788,3.99-3.987s-1.79-3.988-3.99-3.988
									H143.914z"/>
							</g>
							<path style="fill:#F7B1A5;" d="M139.677,111.293c0.063,2.293,1.932,4.132,4.237,4.132h16.105
								c2.307,0,4.178-1.839,4.239-4.132H139.677z"/>
							<path style="fill:#F7B1A5;" d="M141.007,110.057c0,0,0.696-1.908,2.784-2.071h16.152l-16.054,0.58
								C143.89,108.565,142.598,108.565,141.007,110.057z"/>
						</g>
					</g>
					<path style="opacity:0.5;fill:#F7B1A5;" d="M160.019,7.266h-7.01v8.501h7.01c0.291,0,0.576-0.028,0.85-0.085
						c0.131-0.027,0.252-0.079,0.378-0.116c0.136-0.042,0.278-0.072,0.407-0.126c0.18-0.075,0.346-0.177,0.512-0.275
						c0.066-0.039,0.136-0.065,0.198-0.108c0.204-0.133,0.392-0.291,0.566-0.457c0.018-0.016,0.037-0.026,0.053-0.044
						c0.764-0.745,1.241-1.775,1.274-2.92c0,0,0.001-0.002,0.001-0.003c0.003-0.039,0.014-0.076,0.014-0.118
						C164.271,9.171,162.367,7.266,160.019,7.266z"/>
					<path style="opacity:0.5;fill:#F7B1A5;" d="M160.019,18.34h-7.01v8.501h7.01c0.291,0,0.576-0.031,0.85-0.086
						c0.125-0.025,0.242-0.074,0.364-0.111c0.142-0.041,0.287-0.075,0.423-0.131c0.174-0.074,0.332-0.171,0.492-0.263
						c0.073-0.044,0.149-0.073,0.216-0.117c0.2-0.133,0.381-0.285,0.553-0.45c0.023-0.018,0.047-0.032,0.066-0.054
						c0.765-0.744,1.241-1.774,1.274-2.917c0-0.003,0.001-0.003,0.001-0.004c0.003-0.039,0.014-0.077,0.014-0.117
						C164.271,20.242,162.367,18.34,160.019,18.34z"/>
					<path style="opacity:0.5;fill:#F7B1A5;" d="M160.019,29.412h-7.01v8.503h7.01c0.291,0,0.576-0.032,0.85-0.088
						c0.131-0.024,0.252-0.076,0.378-0.114c0.136-0.041,0.278-0.071,0.407-0.128c0.18-0.073,0.346-0.174,0.512-0.27
						c0.066-0.04,0.136-0.068,0.198-0.109c0.204-0.134,0.392-0.291,0.566-0.457c0.018-0.016,0.037-0.028,0.053-0.043
						c0.764-0.748,1.241-1.777,1.274-2.92c0-0.004,0.001-0.004,0.001-0.004c0.003-0.039,0.014-0.078,0.014-0.118
						C164.271,31.315,162.367,29.412,160.019,29.412z"/>
					<path style="opacity:0.5;fill:#F7B1A5;" d="M160.019,40.485h-7.01v8.503h7.01c0.291,0,0.576-0.031,0.85-0.086
						c0.131-0.027,0.252-0.079,0.378-0.117c0.136-0.042,0.278-0.071,0.407-0.128c0.18-0.074,0.346-0.173,0.512-0.271
						c0.066-0.039,0.136-0.064,0.198-0.108c0.204-0.133,0.392-0.291,0.566-0.457c0.018-0.017,0.037-0.027,0.053-0.043
						c0.764-0.747,1.241-1.776,1.274-2.92c0,0,0.001-0.003,0.001-0.005c0.003-0.04,0.014-0.076,0.014-0.115
						C164.271,42.389,162.367,40.485,160.019,40.485z"/>
					<path style="opacity:0.5;fill:#F7B1A5;" d="M160.019,51.56h-7.01v8.502h7.01c0.291,0,0.576-0.031,0.85-0.087
						c0.131-0.025,0.252-0.077,0.378-0.117c0.136-0.04,0.278-0.071,0.407-0.125c0.18-0.075,0.346-0.176,0.512-0.272
						c0.066-0.039,0.136-0.066,0.198-0.109c0.204-0.134,0.392-0.291,0.566-0.457c0.018-0.016,0.037-0.028,0.053-0.044
						c0.764-0.746,1.241-1.775,1.274-2.919c0,0,0.001-0.002,0.001-0.003c0.003-0.041,0.014-0.077,0.014-0.117
						C164.271,53.463,162.367,51.56,160.019,51.56z"/>
					<path style="opacity:0.5;fill:#F7B1A5;" d="M160.019,62.633h-7.01v8.501h7.01c0.291,0,0.576-0.029,0.85-0.084
						c0.125-0.027,0.242-0.076,0.364-0.113c0.142-0.043,0.287-0.073,0.423-0.131c0.174-0.074,0.332-0.169,0.492-0.265
						c0.073-0.042,0.149-0.071,0.216-0.116c0.2-0.132,0.381-0.286,0.553-0.447c0.023-0.02,0.047-0.034,0.066-0.055
						c0.765-0.745,1.241-1.775,1.274-2.918L164.258,67c0.003-0.04,0.014-0.078,0.014-0.117
						C164.271,64.536,162.367,62.633,160.019,62.633z"/>
					<path style="opacity:0.5;fill:#F7B1A5;" d="M160.019,73.707h-7.01v8.499h7.01c0.291,0,0.576-0.028,0.85-0.086
						c0.131-0.024,0.252-0.077,0.378-0.113c0.136-0.042,0.278-0.074,0.407-0.128c0.18-0.076,0.346-0.176,0.512-0.272
						c0.066-0.04,0.136-0.066,0.198-0.108c0.204-0.134,0.392-0.292,0.566-0.459c0.018-0.015,0.037-0.026,0.053-0.042
						c0.764-0.746,1.241-1.776,1.274-2.919c0-0.002,0.001-0.003,0.001-0.005c0.003-0.04,0.014-0.075,0.014-0.117
						C164.271,75.61,162.367,73.707,160.019,73.707z"/>
					<path style="opacity:0.5;fill:#F7B1A5;" d="M160.019,84.78h-7.01v8.499h7.01c0.291,0,0.576-0.029,0.85-0.087
						c0.131-0.023,0.252-0.076,0.378-0.113c0.136-0.042,0.278-0.07,0.407-0.127c0.18-0.074,0.346-0.175,0.512-0.273
						c0.066-0.038,0.136-0.066,0.198-0.107c0.204-0.135,0.392-0.291,0.566-0.459c0.018-0.015,0.037-0.026,0.053-0.04
						c0.764-0.747,1.241-1.777,1.274-2.922c0-0.001,0.001-0.001,0.001-0.003c0.003-0.041,0.014-0.077,0.014-0.118
						C164.271,86.684,162.367,84.78,160.019,84.78z"/>
					<path style="opacity:0.5;fill:#F7B1A5;" d="M160.019,95.852h-7.01v8.502h7.01c0.291,0,0.576-0.03,0.85-0.086
						c0.131-0.028,0.252-0.079,0.378-0.115c0.136-0.043,0.278-0.072,0.407-0.127c0.18-0.075,0.346-0.177,0.512-0.273
						c0.066-0.039,0.136-0.064,0.198-0.106c0.204-0.136,0.392-0.291,0.566-0.459c0.018-0.016,0.037-0.026,0.053-0.045
						c0.764-0.745,1.241-1.773,1.274-2.919c0-0.001,0.001-0.003,0.001-0.003c0.003-0.039,0.014-0.076,0.014-0.117
						C164.271,97.757,162.367,95.852,160.019,95.852z"/>
					<path style="opacity:0.5;fill:#F7B1A5;" d="M160.019,106.926h-7.01v8.499h7.01c0.291,0,0.576-0.027,0.85-0.083
						c0.131-0.027,0.252-0.077,0.378-0.117c0.136-0.04,0.278-0.071,0.407-0.127c0.18-0.074,0.346-0.175,0.512-0.271
						c0.066-0.04,0.136-0.068,0.198-0.109c0.204-0.135,0.392-0.291,0.566-0.456c0.018-0.017,0.037-0.028,0.053-0.045
						c0.764-0.745,1.241-1.775,1.274-2.92c0-0.001,0.001-0.001,0.001-0.003c0.003-0.04,0.014-0.077,0.014-0.117
						C164.271,108.829,162.367,106.926,160.019,106.926z"/>
					<g>
						<g>
							<path style="fill:#F7B1A5;" d="M103.361,147.946c0.522,1.193-1.321,0.996-3.235,11.158c-0.232,1.242-4.729-0.24-4.729-1.495
								c0.004-4.148,1.195-9.395,3.53-10.72C99.728,146.439,102.715,146.497,103.361,147.946L103.361,147.946z"/>
							<path style="fill:#DB7057;" d="M99.198,159.836c-1.338,0-4.063-1.03-4.063-2.227c0.004-4.408,1.265-9.586,3.663-10.948
								c0.936-0.526,4.073-0.459,4.803,1.179c0.244,0.556,0.069,0.895-0.278,1.57c-0.565,1.092-1.737,3.368-2.938,9.744
								C100.337,159.408,100.118,159.836,99.198,159.836z M100.335,146.903c-0.545,0-1.046,0.085-1.278,0.214
								c-2.2,1.249-3.394,6.339-3.398,10.494c0,0.666,2.149,1.699,3.54,1.699c0.186,0,0.627-0.023,0.67-0.253
								c1.215-6.451,2.412-8.772,2.987-9.889c0.337-0.653,0.403-0.803,0.265-1.117C102.743,147.204,101.384,146.903,100.335,146.903
								z"/>
						</g>
						<g>
							<path style="fill:#F7B1A5;" d="M93.96,147.368c0.446,1.025-1.146,0.857-2.789,9.608c-0.201,1.076-4.073-0.202-4.073-1.284
								c0-3.583,1.022-8.096,3.037-9.23C90.825,146.073,93.402,146.113,93.96,147.368L93.96,147.368z"/>
							<path style="fill:#DB7057;" d="M90.367,157.646c-1.163,0-3.532-0.905-3.532-1.954c0-3.814,1.089-8.287,3.171-9.459
								c0.821-0.463,3.555-0.412,4.192,1.029c0.216,0.492,0.053,0.808-0.242,1.378c-0.486,0.939-1.496,2.894-2.527,8.386
								C91.386,157.257,91.188,157.646,90.367,157.646z M91.36,146.508c-0.569,0-0.947,0.098-1.098,0.184
								c-1.885,1.061-2.904,5.43-2.904,9.001c0,0.546,1.855,1.429,3.009,1.429c0.118,0,0.513-0.014,0.546-0.192
								c1.045-5.567,2.08-7.567,2.577-8.528c0.289-0.56,0.339-0.672,0.228-0.928C93.402,146.76,92.251,146.508,91.36,146.508z"/>
						</g>
						<g>
							<path style="fill:#F7B1A5;" d="M148.112,135.421c-0.846-1.45-1.717-2.901-2.442-4.42c-0.754-1.578-1.966-3.515-2.619-5.137
								c-1.207-2.999-2.535-6.115-3.432-8.622c-0.136-0.377-0.468-0.819-0.823-1.04c-2.361-1.472-5.656,1.371-5.997,2.792
								c-0.34,1.406,0.22,3.061,0.62,4.387c0.582,1.933,1.363,3.807,2.158,5.656c1.4,3.264,3.51,6.06,5.696,8.828
								C142.716,139.687,149.286,137.436,148.112,135.421z"/>
							<path style="fill:#DB7057;" d="M143.204,138.798L143.204,138.798c-0.999,0-1.737-0.267-2.136-0.771
								c-2.21-2.793-4.312-5.576-5.731-8.886c-0.773-1.797-1.576-3.718-2.17-5.683l-0.084-0.274c-0.389-1.28-0.873-2.87-0.539-4.251
								c0.314-1.313,2.632-3.404,4.783-3.404c0.586,0,1.127,0.152,1.608,0.451c0.386,0.238,0.768,0.723,0.932,1.173
								c0.639,1.787,1.482,3.848,2.377,6.029c0.352,0.859,0.707,1.728,1.051,2.585c0.383,0.951,0.967,2.023,1.532,3.062
								c0.397,0.727,0.772,1.415,1.08,2.061c0.631,1.318,1.386,2.61,2.116,3.858l0.315,0.541c0.242,0.415,0.234,0.869-0.022,1.313
								C147.595,137.858,145.022,138.798,143.204,138.798z M137.327,116.054c-1.943,0-4.029,1.988-4.273,3.002
								c-0.3,1.242,0.162,2.758,0.532,3.974l0.083,0.275c0.585,1.941,1.383,3.845,2.15,5.629c1.395,3.25,3.474,6.002,5.66,8.768
								c0.291,0.368,0.903,0.572,1.725,0.572c1.822,0,4.086-0.939,4.657-1.934c0.161-0.279,0.169-0.537,0.023-0.787l-0.316-0.54
								c-0.736-1.259-1.496-2.56-2.137-3.899c-0.302-0.631-0.674-1.314-1.066-2.034c-0.572-1.051-1.164-2.138-1.559-3.116
								c-0.346-0.857-0.7-1.723-1.051-2.582c-0.895-2.187-1.742-4.254-2.385-6.051c-0.121-0.339-0.429-0.729-0.715-0.903
								C138.261,116.178,137.813,116.054,137.327,116.054z"/>
						</g>
						<path style="fill:#F7B1A5;" d="M145.67,131.001c-0.686-1.438-1.733-3.163-2.411-4.687c-2.473,1.11-4.914,2.268-7.148,3.795
							c1.376,2.805,3.224,5.303,5.163,7.756c1.442,1.821,8.013-0.43,6.839-2.444C147.267,133.971,146.395,132.52,145.67,131.001z"/>
						<g>
							<path style="fill:#F7B1A5;" d="M128.919,124.812c1.9,0.819-0.047,2.461,10.297,15.891c1.264,1.644-4.688,4.512-6.186,3.089
								c-4.947-4.708-10.086-11.847-9.493-15.699C123.743,126.777,126.587,123.817,128.919,124.812L128.919,124.812z"/>
							<path style="fill:#DB7057;" d="M134.276,144.438c-0.628,0-1.107-0.154-1.427-0.457c-5.212-4.959-10.173-12.021-9.571-15.929
								c0.197-1.252,2.42-3.702,4.645-3.702c0.386,0,0.755,0.074,1.099,0.22c0.797,0.344,1.011,0.84,1.48,1.925
								c0.781,1.814,2.408,5.589,8.922,14.047c0.276,0.36,0.305,0.789,0.082,1.241C138.882,143.048,136.145,144.438,134.276,144.438
								z M127.923,124.873c-1.904,0-3.963,2.213-4.127,3.259c-0.566,3.689,4.428,10.724,9.416,15.468
								c0.215,0.205,0.582,0.313,1.064,0.313c1.68,0,4.215-1.258,4.758-2.36c0.177-0.359,0.07-0.565-0.027-0.69
								c-6.553-8.511-8.198-12.324-8.988-14.158c-0.448-1.04-0.6-1.391-1.203-1.651
								C128.538,124.933,128.237,124.873,127.923,124.873z"/>
						</g>
						<g>
							<path style="fill:#F7B1A5;" d="M119.755,133.598c1.978,0.54,0.139,2.4,11.531,14.141c1.385,1.436-4.381,5.018-5.995,3.828
								c-5.315-3.938-11.004-10.226-10.69-14.064C114.706,136.19,117.34,132.93,119.755,133.598L119.755,133.598z"/>
							<path style="fill:#DB7057;" d="M126.171,152.066c-0.427,0-0.775-0.097-1.036-0.289c-5.605-4.153-11.114-10.396-10.795-14.295
								c0.108-1.359,2.427-4.236,4.751-4.236c0.25,0,0.497,0.033,0.734,0.099c0.836,0.228,1.09,0.688,1.647,1.695
								c0.921,1.666,2.841,5.137,10.002,12.515c0.22,0.23,0.427,0.628,0.166,1.242C131.017,150.264,128.001,152.066,126.171,152.066
								z M119.091,133.771c-2.06,0-4.144,2.701-4.229,3.753c-0.3,3.668,5.229,9.864,10.586,13.831
								c0.166,0.125,0.41,0.188,0.723,0.188c1.604,0,4.448-1.683,4.987-2.952c0.161-0.377,0.042-0.563-0.06-0.671
								c-7.209-7.43-9.151-10.939-10.085-12.625c-0.541-0.979-0.703-1.273-1.327-1.444
								C119.493,133.798,119.294,133.771,119.091,133.771z"/>
						</g>
						<g>
							<path style="fill:#F7B1A5;" d="M112.496,143.783c1.84,0.286,0.29,2.165,11.495,11.607c1.367,1.158-3.656,4.992-5.21,4.079
								c-5.123-3.012-10.757-8.109-10.728-11.608C108.058,146.661,110.244,143.436,112.496,143.783L112.496,143.783z"/>
							<path style="fill:#DB7057;" d="M119.371,159.872c-0.282,0-0.525-0.059-0.723-0.176c-5.418-3.185-10.887-8.274-10.857-11.838
								c0.005-1.194,1.99-4.363,4.364-4.363c0.126,0,0.254,0.01,0.381,0.029c0.791,0.123,1.058,0.516,1.641,1.376
								c0.952,1.414,2.938,4.354,9.983,10.289c0.19,0.163,0.474,0.53,0.233,1.187C123.843,157.879,120.979,159.872,119.371,159.872z
								 M112.155,144.021c-1.966,0-3.836,2.795-3.84,3.841c-0.027,3.329,5.439,8.35,10.598,11.384
								c0.117,0.067,0.271,0.102,0.458,0.102c1.388,0,4.056-1.855,4.53-3.152c0.135-0.367,0.02-0.52-0.08-0.604
								c-7.101-5.983-9.113-8.963-10.08-10.395c-0.553-0.818-0.721-1.065-1.285-1.153
								C112.354,144.026,112.255,144.021,112.155,144.021z"/>
						</g>
						<g>
							<path style="fill:#F7B1A5;" d="M104.585,153.349c1.775,0.126,0.475,2.027,11.951,10.075c1.405,0.979-3.02,5.032-4.57,4.295
								c-5.137-2.442-10.939-6.819-11.225-10.143C100.64,156.437,102.417,153.202,104.585,153.349L104.585,153.349z"/>
							<path style="fill:#DB7057;" d="M112.403,168.069c-0.205,0-0.391-0.039-0.551-0.113c-5.431-2.583-11.082-6.971-11.373-10.357
								c-0.071-0.799,0.602-2.25,1.502-3.232c0.563-0.616,1.491-1.356,2.621-1.279c0.769,0.056,1.058,0.408,1.691,1.181
								c1.033,1.26,3.183,3.884,10.394,8.941c0.209,0.146,0.528,0.498,0.308,1.2C116.552,165.82,113.966,168.069,112.403,168.069z
								 M104.442,153.605c-0.871,0-1.609,0.606-2.074,1.114c-0.869,0.951-1.418,2.256-1.366,2.833
								c0.272,3.156,5.909,7.471,11.075,9.929c0.089,0.041,0.199,0.064,0.326,0.064c1.319,0,3.707-2.072,4.092-3.294
								c0.138-0.439-0.041-0.564-0.109-0.612c-7.271-5.099-9.451-7.76-10.498-9.038c-0.631-0.77-0.799-0.953-1.322-0.99
								C104.525,153.607,104.483,153.605,104.442,153.605z"/>
						</g>
						<g>
							<path style="fill:#F7B1A5;" d="M98.796,163.737c1.545,0,0.549,1.726,11.009,7.952c1.274,0.765-2.261,4.528-3.657,3.993
								c-4.594-1.795-9.898-5.208-10.379-8.063C95.6,166.651,96.921,163.742,98.796,163.737L98.796,163.737z"/>
							<path style="fill:#DB7057;" d="M106.449,175.996c-0.144,0-0.276-0.023-0.396-0.069c-4.871-1.902-10.054-5.35-10.544-8.264
								c-0.126-0.726,0.415-2.114,1.183-3.031c0.633-0.754,1.359-1.154,2.104-1.157c0.682,0,0.977,0.309,1.565,0.925
								c0.978,1.024,3.009,3.154,9.578,7.065c0.21,0.127,0.534,0.441,0.342,1.134C109.919,173.909,107.763,175.996,106.449,175.996z
								 M98.796,163.999c-0.736,0.002-1.332,0.528-1.701,0.971c-0.781,0.932-1.146,2.145-1.067,2.605
								c0.452,2.692,5.602,6.061,10.215,7.862c0.058,0.023,0.129,0.035,0.207,0.035c1.075,0,3.018-1.896,3.327-3.015
								c0.113-0.411-0.047-0.506-0.108-0.542c-6.629-3.948-8.695-6.113-9.687-7.154C99.392,164.146,99.237,163.999,98.796,163.999z"
								/>
						</g>
						<g>
							<path style="fill:#F7B1A5;" d="M93.588,172.67c1.468-0.005,0.522,1.642,10.496,7.58c1.218,0.73-2.153,4.323-3.485,3.81
								c-4.379-1.705-9.442-4.965-9.897-7.682C90.544,175.449,91.8,172.679,93.588,172.67L93.588,172.67z"/>
							<path style="fill:#DB7057;" d="M100.888,184.372c-0.138,0-0.268-0.022-0.383-0.067c-4.647-1.809-9.596-5.098-10.063-7.882
								c-0.119-0.706,0.402-2.039,1.139-2.914c0.604-0.718,1.297-1.098,2.006-1.101c0.656,0,0.938,0.294,1.498,0.882
								c0.932,0.975,2.869,3.005,9.133,6.734c0.205,0.122,0.519,0.428,0.332,1.097C104.196,182.405,102.169,184.372,100.888,184.372
								z M93.595,172.932c-0.699,0.005-1.262,0.5-1.611,0.914c-0.744,0.886-1.098,2.047-1.023,2.489
								c0.43,2.565,5.336,5.768,9.734,7.48c0.055,0.021,0.121,0.031,0.193,0.031c1.021,0,2.863-1.802,3.157-2.866
								c0.106-0.385-0.041-0.472-0.097-0.506c-6.324-3.766-8.295-5.83-9.242-6.822C94.139,173.058,94.005,172.932,93.595,172.932z"
								/>
						</g>
						<g>
							<path style="fill:#F7B1A5;" d="M89.137,181.729c1.134,0,0.407,1.268,8.079,5.835c0.934,0.568-1.659,3.329-2.676,2.934
								c-3.379-1.313-7.269-3.817-7.63-5.913C86.798,183.866,87.761,181.737,89.137,181.729L89.137,181.729z"/>
							<path style="fill:#DB7057;" d="M94.761,190.801c-0.113,0-0.221-0.02-0.316-0.057c-3.59-1.397-7.42-3.946-7.793-6.114
								c-0.089-0.568,0.325-1.623,0.905-2.306c0.474-0.558,1.019-0.854,1.579-0.858c0.531,0,0.756,0.234,1.201,0.701
								c0.715,0.748,2.202,2.307,7.012,5.172c0.174,0.105,0.438,0.362,0.281,0.921C97.348,189.262,95.761,190.801,94.761,190.801z
								 M89.137,181.991c-0.506,0.003-0.92,0.367-1.18,0.672c-0.558,0.657-0.84,1.554-0.786,1.88
								c0.335,1.953,4.096,4.402,7.463,5.713c0.037,0.012,0.078,0.02,0.127,0.02c0.689,0,2.126-1.31,2.363-2.157
								c0.073-0.26-0.013-0.311-0.045-0.329c-4.869-2.9-6.391-4.493-7.121-5.259C89.532,182.086,89.433,181.991,89.137,181.991z"/>
						</g>
					</g>
					<g>
						<g>
							<path style="fill:#F7B1A5;" d="M201.083,147.946c-0.523,1.193,1.321,0.996,3.235,11.158c0.233,1.242,4.73-0.24,4.73-1.495
								c-0.006-4.148-1.197-9.395-3.533-10.72C204.715,146.439,201.729,146.497,201.083,147.946L201.083,147.946z"/>
							<path style="fill:#DB7057;" d="M205.247,159.836L205.247,159.836c-0.921-0.001-1.139-0.428-1.186-0.684
								c-1.201-6.374-2.375-8.648-2.939-9.742c-0.349-0.676-0.524-1.015-0.279-1.569c0.73-1.639,3.869-1.706,4.802-1.18
								c2.398,1.36,3.659,6.538,3.666,10.948c0,0.716-0.959,1.288-1.53,1.564C206.946,159.576,205.952,159.836,205.247,159.836z
								 M204.109,146.903c-1.049,0-2.409,0.302-2.787,1.15c-0.138,0.313-0.071,0.462,0.266,1.116
								c0.576,1.115,1.774,3.438,2.989,9.888c0.043,0.23,0.482,0.253,0.67,0.253l0,0c0.633,0,1.537-0.239,2.305-0.609
								c0.75-0.363,1.234-0.791,1.234-1.092c-0.006-4.153-1.201-9.243-3.4-10.492C205.154,146.988,204.653,146.903,204.109,146.903z
								"/>
						</g>
						<g>
							<path style="fill:#F7B1A5;" d="M210.485,147.368c-0.449,1.025,1.145,0.857,2.786,9.608c0.206,1.076,4.077-0.202,4.077-1.284
								c0-3.583-1.025-8.096-3.04-9.23C213.616,146.073,211.044,146.113,210.485,147.368L210.485,147.368z"/>
							<path style="fill:#DB7057;" d="M214.077,157.646L214.077,157.646c-0.821,0-1.018-0.388-1.063-0.62
								c-1.031-5.489-2.041-7.445-2.526-8.385c-0.296-0.571-0.458-0.887-0.243-1.379c0.641-1.441,3.37-1.492,4.192-1.029
								c2.083,1.173,3.174,5.645,3.174,9.459c0,0.638-0.837,1.138-1.336,1.38C215.542,157.427,214.701,157.646,214.077,157.646z
								 M213.082,146.508c-0.889,0-2.039,0.252-2.356,0.967c-0.111,0.254-0.061,0.368,0.229,0.927
								c0.498,0.962,1.531,2.963,2.576,8.527c0.033,0.179,0.428,0.192,0.547,0.192c0.541,0,1.314-0.204,1.969-0.521
								c0.719-0.349,1.041-0.707,1.041-0.907c0-3.571-1.02-7.94-2.906-9.001C214.029,146.605,213.651,146.508,213.082,146.508z"/>
						</g>
						<g>
							<path style="fill:#F7B1A5;" d="M165.647,116.202c-1.937,1.197,0.283,2.719-9.314,19.219
								c-1.175,2.015,5.396,4.266,6.838,2.444c4.759-5.983,9.494-14.691,8.475-18.871
								C171.302,117.573,168.011,114.731,165.647,116.202L165.647,116.202z"/>
							<path style="fill:#DB7057;" d="M161.24,138.798L161.24,138.798c-1.817,0-4.392-0.939-5.112-2.197
								c-0.256-0.443-0.264-0.897-0.022-1.313c6.036-10.375,7.39-14.824,8.041-16.962c0.399-1.311,0.564-1.853,1.363-2.347
								c0.479-0.299,1.02-0.451,1.606-0.451c2.149,0,4.467,2.091,4.783,3.404c1.027,4.209-3.51,12.792-8.523,19.096
								C162.977,138.531,162.239,138.798,161.24,138.798z M167.116,116.054c-0.486,0-0.934,0.124-1.328,0.371
								c-0.635,0.391-0.761,0.81-1.14,2.054c-0.657,2.156-2.022,6.645-8.089,17.074c-0.145,0.25-0.138,0.508,0.023,0.786
								c0.57,0.995,2.834,1.934,4.657,1.934l0,0c0.821,0,1.433-0.204,1.724-0.572c4.813-6.05,9.402-14.643,8.427-18.645
								C171.145,118.042,169.059,116.054,167.116,116.054z"/>
						</g>
						<g>
							<path style="fill:#F7B1A5;" d="M175.526,124.812c-1.9,0.819,0.045,2.461-10.299,15.891c-1.264,1.644,4.691,4.512,6.188,3.089
								c4.945-4.708,10.084-11.847,9.494-15.699C180.702,126.777,177.856,123.817,175.526,124.812L175.526,124.812z"/>
							<path style="fill:#DB7057;" d="M170.169,144.438L170.169,144.438c-1.87,0-4.607-1.39-5.23-2.655
								c-0.223-0.452-0.195-0.882,0.082-1.241c6.514-8.456,8.142-12.232,8.924-14.047c0.468-1.085,0.682-1.581,1.479-1.925
								c0.345-0.146,0.714-0.22,1.099-0.22c2.224,0,4.45,2.45,4.646,3.701c0.6,3.908-4.361,10.971-9.571,15.93
								C171.276,144.283,170.797,144.438,170.169,144.438z M176.521,124.873c-0.314,0-0.614,0.06-0.893,0.179
								c-0.604,0.261-0.755,0.611-1.202,1.651c-0.792,1.834-2.438,5.649-8.99,14.158c-0.096,0.125-0.203,0.331-0.027,0.688
								c0.544,1.105,3.079,2.362,4.76,2.362c0.482,0,0.85-0.107,1.064-0.313c4.986-4.744,9.982-11.779,9.416-15.47
								C180.485,127.086,178.427,124.873,176.521,124.873z"/>
						</g>
						<g>
							<path style="fill:#F7B1A5;" d="M184.689,133.598c-1.977,0.54-0.14,2.4-11.53,14.141c-1.388,1.436,4.381,5.018,5.992,3.828
								c5.317-3.938,11.006-10.226,10.695-14.064C189.739,136.19,187.104,132.93,184.689,133.598L184.689,133.598z"/>
							<path style="fill:#DB7057;" d="M178.273,152.066L178.273,152.066c-1.831,0-4.848-1.803-5.47-3.27
								c-0.261-0.614-0.053-1.015,0.167-1.24c7.159-7.38,9.079-10.851,10.001-12.517c0.558-1.007,0.813-1.468,1.648-1.695
								c0.236-0.065,0.482-0.099,0.733-0.099c2.322,0,4.644,2.877,4.755,4.236c0.314,3.899-5.194,10.144-10.799,14.295
								C179.048,151.97,178.699,152.066,178.273,152.066z M185.354,133.771c-0.203,0-0.403,0.026-0.594,0.079
								c-0.624,0.171-0.786,0.466-1.328,1.444c-0.934,1.686-2.876,5.195-10.084,12.627c-0.103,0.105-0.222,0.292-0.062,0.671
								c0.539,1.268,3.381,2.95,4.987,2.95c0.312,0,0.556-0.063,0.724-0.188c5.354-3.965,10.885-10.161,10.588-13.831
								C189.499,136.474,187.411,133.771,185.354,133.771z"/>
						</g>
						<g>
							<path style="fill:#F7B1A5;" d="M191.949,143.783c-1.843,0.286-0.294,2.165-11.498,11.607
								c-1.364,1.158,3.659,4.992,5.212,4.079c5.123-3.012,10.756-8.109,10.726-11.608
								C196.386,146.661,194.198,143.436,191.949,143.783L191.949,143.783z"/>
							<path style="fill:#DB7057;" d="M185.073,159.872L185.073,159.872c-1.608,0-4.471-1.994-5.023-3.496
								c-0.24-0.656,0.042-1.023,0.232-1.187c7.041-5.934,9.029-8.873,9.984-10.285c0.583-0.862,0.85-1.257,1.643-1.38
								c2.52-0.391,4.738,3.075,4.742,4.336c0.031,3.559-5.438,8.65-10.855,11.836C185.599,159.814,185.354,159.872,185.073,159.872
								z M192.29,144.021c-0.1,0-0.199,0.006-0.299,0.021c-0.568,0.09-0.736,0.335-1.29,1.156
								c-0.97,1.433-2.983,4.412-10.081,10.393c-0.098,0.083-0.213,0.236-0.078,0.604c0.477,1.297,3.143,3.152,4.531,3.152l0,0
								c0.187,0,0.342-0.034,0.457-0.102c5.158-3.035,10.626-8.055,10.597-11.383C196.123,146.815,194.256,144.021,192.29,144.021z"
								/>
						</g>
						<g>
							<path style="fill:#F7B1A5;" d="M199.861,153.349c-1.778,0.126-0.478,2.027-11.952,10.075
								c-1.406,0.979,3.018,5.032,4.57,4.295c5.135-2.442,10.936-6.819,11.225-10.143
								C203.804,156.437,202.027,153.202,199.861,153.349L199.861,153.349z"/>
							<path style="fill:#DB7057;" d="M192.042,168.069L192.042,168.069c-1.563,0-4.149-2.249-4.592-3.66
								c-0.223-0.702,0.099-1.054,0.309-1.2c7.207-5.055,9.357-7.678,10.391-8.94c0.635-0.773,0.924-1.126,1.693-1.182
								c1.143-0.076,2.057,0.662,2.619,1.276c0.899,0.982,1.573,2.435,1.502,3.235c-0.293,3.387-5.941,7.774-11.371,10.357
								C192.433,168.03,192.247,168.069,192.042,168.069z M200.004,153.605c-0.042,0-0.083,0.002-0.125,0.005
								c-0.522,0.037-0.692,0.22-1.323,0.991c-1.048,1.279-3.23,3.941-10.496,9.037c-0.068,0.048-0.248,0.173-0.109,0.612
								c0.383,1.222,2.77,3.294,4.092,3.294l0,0c0.127,0,0.236-0.022,0.325-0.064c5.165-2.457,10.802-6.772,11.074-9.927
								c0.052-0.579-0.497-1.888-1.367-2.837C201.61,154.211,200.874,153.605,200.004,153.605z"/>
						</g>
						<g>
							<path style="fill:#F7B1A5;" d="M205.649,163.737c-1.547,0-0.55,1.726-11.01,7.952c-1.273,0.765,2.26,4.528,3.656,3.993
								c4.594-1.795,9.899-5.208,10.381-8.063C208.843,166.651,207.524,163.742,205.649,163.737L205.649,163.737z"/>
							<path style="fill:#DB7057;" d="M197.993,175.996L197.993,175.996c-1.311,0-3.467-2.087-3.83-3.398
								c-0.191-0.692,0.131-1.007,0.341-1.134c6.568-3.909,8.601-6.041,9.578-7.063c0.589-0.618,0.884-0.927,1.567-0.927
								c0.742,0.003,1.467,0.401,2.098,1.153c0.77,0.916,1.314,2.307,1.188,3.037c-0.49,2.912-5.674,6.359-10.543,8.262
								C198.27,175.974,198.138,175.996,197.993,175.996z M205.648,163.999c-0.44,0-0.597,0.147-1.186,0.765
								c-0.993,1.041-3.06,3.204-9.689,7.152c-0.059,0.036-0.219,0.131-0.104,0.542c0.31,1.119,2.25,3.013,3.324,3.015l0,0
								c0.08,0,0.15-0.012,0.21-0.035c4.612-1.802,9.761-5.17,10.214-7.861c0.08-0.463-0.289-1.68-1.07-2.611
								C206.977,164.526,206.384,164.001,205.648,163.999z"/>
						</g>
						<g>
							<path style="fill:#F7B1A5;" d="M210.857,172.67c-1.469-0.005-0.522,1.642-10.497,7.58c-1.221,0.73,2.154,4.323,3.484,3.81
								c4.381-1.705,9.443-4.965,9.9-7.682C213.899,175.449,212.646,172.679,210.857,172.67L210.857,172.67z"/>
							<path style="fill:#DB7057;" d="M203.556,184.372L203.556,184.372c-1.281,0-3.309-1.968-3.662-3.251
								c-0.186-0.669,0.129-0.975,0.333-1.097c6.264-3.729,8.201-5.758,9.132-6.734c0.561-0.588,0.844-0.882,1.493-0.882
								c0.714,0.003,1.406,0.381,2.009,1.096c0.737,0.875,1.262,2.21,1.143,2.917c-0.468,2.788-5.417,6.075-10.063,7.884
								C203.823,184.35,203.694,184.372,203.556,184.372z M210.855,172.932c-0.415,0-0.55,0.126-1.117,0.723
								c-0.947,0.991-2.919,3.055-9.243,6.82c-0.055,0.034-0.202,0.121-0.096,0.506c0.293,1.063,2.135,2.866,3.156,2.866
								c0.074,0,0.14-0.011,0.195-0.031c4.396-1.712,9.304-4.915,9.735-7.48c0.073-0.443-0.282-1.608-1.026-2.492
								C212.11,173.429,211.55,172.937,210.855,172.932z"/>
						</g>
						<g>
							<path style="fill:#F7B1A5;" d="M215.307,181.729c-1.132,0-0.403,1.268-8.078,5.835c-0.933,0.568,1.658,3.329,2.675,2.934
								c3.38-1.313,7.271-3.817,7.629-5.913C217.647,183.866,216.685,181.737,215.307,181.729L215.307,181.729z"/>
							<path style="fill:#DB7057;" d="M209.683,190.801L209.683,190.801c-1,0-2.586-1.539-2.868-2.541
								c-0.156-0.559,0.107-0.816,0.278-0.919c4.814-2.867,6.301-4.426,7.016-5.174c0.445-0.467,0.668-0.701,1.198-0.701
								c0.563,0.004,1.11,0.303,1.585,0.862c0.578,0.685,0.99,1.735,0.898,2.299c-0.369,2.171-4.199,4.72-7.791,6.117
								C209.901,190.781,209.796,190.801,209.683,190.801z M215.306,181.991c-0.294,0-0.394,0.095-0.817,0.538
								c-0.73,0.766-2.251,2.359-7.126,5.26c-0.029,0.018-0.115,0.069-0.043,0.329c0.238,0.848,1.674,2.157,2.363,2.157l0,0
								c0.049,0,0.091-0.008,0.126-0.02c3.37-1.311,7.131-3.76,7.464-5.716c0.053-0.323-0.227-1.215-0.781-1.873
								C216.231,182.361,215.813,181.994,215.306,181.991z"/>
						</g>
					</g>
					<g>
						<path style="fill:#F7B1A5;" d="M202.436,151.757c0.554,1.525,1.213,3.794,1.882,7.348c0.233,1.242,4.73-0.24,4.73-1.495
							c0-1.802-0.23-3.811-0.674-5.616C206.389,151.989,204.421,151.844,202.436,151.757z"/>
						<path style="fill:#F7B1A5;" d="M212.038,151.791c0.385,1.246,0.807,2.909,1.233,5.186c0.206,1.076,4.077-0.202,4.077-1.284
							c0-1.544-0.192-3.256-0.568-4.798C215.223,151.298,213.64,151.604,212.038,151.791z"/>
						<path style="fill:#F7B1A5;" d="M165.149,128.334c0.982,0.75,1.936,1.538,2.899,2.313c2.549-4.472,4.246-8.984,3.597-11.652
							c-0.344-1.421-3.635-4.264-5.998-2.792c-1.441,0.891-0.585,1.966-4.004,9.255C162.851,126.44,164.015,127.47,165.149,128.334z
							"/>
						<path style="fill:#F7B1A5;" d="M174.819,136.372c0.596,0.535,1.168,1.087,1.754,1.625c2.752-3.649,4.713-7.446,4.336-9.905
							c-0.207-1.315-3.053-4.274-5.383-3.28c-1.441,0.622-0.676,1.721-4.732,8.072C172.149,134.03,173.499,135.187,174.819,136.372z
							"/>
						<path style="fill:#F7B1A5;" d="M185.017,146.33c2.904-3.123,5.023-6.448,4.83-8.827c-0.107-1.313-2.742-4.573-5.157-3.905
							c-1.484,0.403-0.818,1.558-5.228,7.085C181.366,142.516,183.208,144.403,185.017,146.33z"/>
						<path style="fill:#F7B1A5;" d="M191.691,153.957c0.169,0.214,0.327,0.433,0.497,0.646c2.453-2.318,4.217-4.782,4.201-6.742
							c-0.004-1.2-2.191-4.426-4.44-4.078c-1.301,0.203-0.915,1.209-4.545,5.125C188.872,150.555,190.31,152.231,191.691,153.957z"
							/>
						<path style="fill:#F7B1A5;" d="M198.968,163.738c2.609-2.026,4.57-4.265,4.736-6.163c0.1-1.139-1.677-4.373-3.843-4.227
							c-1.284,0.091-0.963,1.11-5.016,4.704C196.251,159.929,197.631,161.819,198.968,163.738z"/>
						<path style="fill:#F7B1A5;" d="M204.653,172.311c2.148-1.503,3.768-3.174,4.023-4.691c0.166-0.968-1.152-3.877-3.027-3.882
							c-1.08,0-0.933,0.849-4.318,3.489C202.458,168.908,203.565,170.605,204.653,172.311z"/>
						<path style="fill:#F7B1A5;" d="M209.915,180.843c2.045-1.434,3.587-3.026,3.83-4.465c0.154-0.929-1.099-3.699-2.888-3.708
							c-1.011-0.003-0.88,0.777-3.96,3.206C207.915,177.525,208.922,179.18,209.915,180.843z"/>
						<path style="fill:#F7B1A5;" d="M214.256,188.249c1.737-1.159,3.075-2.476,3.276-3.664c0.115-0.719-0.848-2.848-2.226-2.857
							c-0.804,0-0.685,0.648-3.298,2.661C212.761,185.672,213.51,186.962,214.256,188.249z"/>
					</g>
					<g>
						<path style="fill:#F7B1A5;" d="M96.983,151.954c-0.297-0.016-0.596-0.027-0.891-0.036c-0.462,1.824-0.695,3.865-0.695,5.691
							c0,1.255,4.496,2.737,4.729,1.495c0.569-3.027,1.133-5.119,1.63-6.618C100.179,152.431,98.664,152.038,96.983,151.954z"/>
						<path style="fill:#F7B1A5;" d="M91.925,151.616c-1.5-0.233-2.902-0.579-4.123-1.237c-0.468,1.669-0.704,3.595-0.704,5.314
							c0,1.082,3.872,2.36,4.073,1.284c0.441-2.351,0.878-4.041,1.273-5.299C92.271,151.655,92.096,151.64,91.925,151.616z"/>
						<path style="fill:#F7B1A5;" d="M133.178,132.136c-2.186,1.302-4.278,2.838-6.276,4.522c1.743,2.525,3.955,5.063,6.129,7.133
							c1.498,1.423,7.449-1.445,6.186-3.089C136.398,137.044,134.498,134.267,133.178,132.136z"/>
						<path style="fill:#F7B1A5;" d="M123.933,139.326c-1.948,1.858-3.798,3.831-5.55,5.823c1.978,2.323,4.478,4.617,6.908,6.417
							c1.614,1.19,7.38-2.392,5.995-3.828C127.703,144.043,125.43,141.328,123.933,139.326z"/>
						<path style="fill:#F7B1A5;" d="M116.081,147.835c-1.416,1.697-2.766,3.379-4.04,4.989c-0.233,0.295-0.455,0.594-0.685,0.888
							c2.063,2.138,4.807,4.223,7.425,5.758c1.554,0.913,6.577-2.921,5.21-4.079C119.94,151.977,117.561,149.555,116.081,147.835z"
							/>
						<path style="fill:#F7B1A5;" d="M108.722,157.254c-1.379,1.93-2.703,3.895-3.98,5.892c2.098,1.751,4.736,3.389,7.225,4.573
							c1.551,0.737,5.976-3.316,4.57-4.295C112.698,160.732,110.294,158.73,108.722,157.254z"/>
						<path style="fill:#F7B1A5;" d="M109.805,171.689c-3.618-2.153-5.845-3.759-7.3-4.95c-1.064,1.746-2.104,3.508-3.129,5.279
							c1.968,1.447,4.459,2.759,6.771,3.664C107.544,176.218,111.079,172.454,109.805,171.689z"/>
						<path style="fill:#F7B1A5;" d="M104.084,180.25c-3.31-1.97-5.401-3.461-6.794-4.582c-0.959,1.699-1.912,3.4-2.865,5.103
							c1.828,1.298,4.078,2.474,6.174,3.289C101.931,184.573,105.302,180.98,104.084,180.25z"/>
						<path style="fill:#F7B1A5;" d="M97.216,187.564c-2.242-1.332-3.754-2.38-4.815-3.2c-0.735,1.297-1.476,2.589-2.223,3.88
							c1.331,0.888,2.895,1.684,4.362,2.255C95.557,190.893,98.149,188.132,97.216,187.564z"/>
					</g>
					<path style="fill:#F7B1A5;" d="M134.751,118.283c0,0-1.418,0.672-0.373,4.551c1.045,3.875,4.846,10.438,7.156,13.347
						C141.534,136.181,133.408,122.532,134.751,118.283z"/>
					<path style="fill:#F7B1A5;" d="M124.998,127.415c0,0-1.181,0.88,0.46,4.402c1.641,3.521,6.285,9.137,8.92,11.518
						C134.378,143.336,124.517,131.697,124.998,127.415z"/>
					<path style="fill:#F7B1A5;" d="M115.972,137.02c0,0-1.064,0.979,0.906,4.25c1.971,3.27,7.092,8.269,9.915,10.321
						C126.793,151.591,115.945,141.251,115.972,137.02z"/>
					<path style="fill:#F7B1A5;" d="M109.45,146.741c0,0-1.201,1.471,0.795,4.176c1.997,2.703,6.92,6.27,9.444,7.854
						C119.689,158.771,109.972,150.424,109.45,146.741z"/>
					<path style="fill:#F7B1A5;" d="M102.242,155.939c0,0-1.052,1.8,1.188,4.305c2.237,2.511,6.219,5.233,8.878,6.578
						C112.308,166.822,102.393,159.89,102.242,155.939z"/>
					<path style="fill:#F7B1A5;" d="M97.615,165.849c0,0-1.325,1.809,0.821,3.93c2.149,2.123,6.15,4.264,8.875,5.247
						C107.311,175.025,97.356,169.553,97.615,165.849z"/>
					<path style="fill:#F7B1A5;" d="M92.208,174.621c0,0-1.047,1.572,0.86,3.574c1.905,2.004,5.383,4.1,7.733,5.1
						C100.802,183.295,92.144,177.947,92.208,174.621z"/>
					<path style="fill:#F7B1A5;" d="M88.144,182.997c0,0-0.853,1.28,0.701,2.911c1.55,1.628,4.378,3.332,6.29,4.146
						C95.135,190.054,88.092,185.703,88.144,182.997z"/>
					<path style="fill:#F7B1A5;" d="M99.235,147.736c0,0-2.387,1.938-3.058,9.17c0,0,2.61-7.828,4.922-9.022
						C101.1,147.884,100.056,147.041,99.235,147.736z"/>
					<path style="fill:#F7B1A5;" d="M90.417,147.386c0,0-2.023,1.744-2.416,8.041c0,0,2.06-6.867,4.038-7.96
						C92.039,147.467,91.112,146.759,90.417,147.386z"/>
					<path style="fill:#F7B1A5;" d="M169.446,118.283c0,0,1.415,0.672,0.372,4.551c-1.044,3.875-4.847,10.438-7.157,13.347
						C162.661,136.181,170.787,122.532,169.446,118.283z"/>
					<path style="fill:#F7B1A5;" d="M179.198,127.415c0,0,1.181,0.88-0.461,4.402c-1.641,3.521-6.286,9.137-8.919,11.518
						C169.818,143.336,179.681,131.697,179.198,127.415z"/>
					<path style="fill:#F7B1A5;" d="M188.225,137.02c0,0,1.064,0.979-0.907,4.25c-1.971,3.27-7.092,8.269-9.914,10.321
						C177.403,151.591,188.249,141.251,188.225,137.02z"/>
					<path style="fill:#F7B1A5;" d="M194.747,146.741c0,0,1.201,1.471-0.795,4.176c-1.998,2.703-6.922,6.27-9.444,7.854
						C184.508,158.771,194.224,150.424,194.747,146.741z"/>
					<path style="fill:#F7B1A5;" d="M201.954,155.939c0,0,1.052,1.8-1.188,4.305c-2.235,2.511-6.219,5.233-8.878,6.578
						C191.888,166.822,201.804,159.89,201.954,155.939z"/>
					<path style="fill:#F7B1A5;" d="M206.581,165.849c0,0,1.326,1.809-0.822,3.93c-2.146,2.123-6.149,4.264-8.875,5.247
						C196.884,175.025,206.84,169.553,206.581,165.849z"/>
					<path style="fill:#F7B1A5;" d="M211.989,174.621c0,0,1.045,1.572-0.861,3.574c-1.907,2.004-5.385,4.1-7.732,5.1
						C203.395,183.295,212.052,177.947,211.989,174.621z"/>
					<path style="fill:#F7B1A5;" d="M216.052,182.997c0,0,0.854,1.28-0.702,2.911c-1.548,1.628-4.377,3.332-6.284,4.146
						C209.065,190.054,216.104,185.703,216.052,182.997z"/>
					<path style="fill:#F7B1A5;" d="M204.962,147.736c0,0,2.385,1.938,3.059,9.17c0,0-2.61-7.828-4.924-9.022
						C203.097,147.884,204.141,147.041,204.962,147.736z"/>
					<path style="fill:#F7B1A5;" d="M213.78,147.386c0,0,2.021,1.744,2.414,8.041c0,0-2.063-6.867-4.037-7.96
						C212.157,147.467,213.085,146.759,213.78,147.386z"/>
				</g>
			</g>
			<path style="fill:#E4575A;" d="M119.325,93.578c1.815,4.536,2.566,9.429,2.514,14.308c-0.133,11.854-2.498,23.627-4.824,35.206
				c-2.377,11.826-4.316,23.969-0.244,35.664c2.125,6.106,5.287,11.656,9.063,16.795c-1.394-3.502-2.82-6.898-3.642-10.788
				c-1.216-5.758-1.538-11.708-1.606-17.577c-0.15-12.555,1.824-24.63,3.998-36.934c2.369-13.417,4.377-37.498-10.94-44.549
				C115.804,88.133,118.081,90.47,119.325,93.578z"/>
			<path style="fill:#E4575A;" d="M185.347,93.578c-1.816,4.536-2.565,9.429-2.514,14.308c0.133,11.854,2.5,23.627,4.823,35.206
				c2.376,11.826,4.315,23.969,0.243,35.664c-2.123,6.106-5.285,11.656-9.06,16.795c1.392-3.502,2.817-6.898,3.641-10.788
				c1.214-5.758,1.537-11.708,1.607-17.577c0.149-12.555-1.825-24.63-3.999-36.934c-2.369-13.417-4.376-37.498,10.94-44.549
				C188.866,88.133,186.591,90.47,185.347,93.578z"/>
		</g>
		<g>
			<path style="fill:#E4575A;" d="M122.191,184.763c-1.216-5.758-1.538-11.708-1.606-17.577c-0.15-12.555,1.824-24.63,3.998-36.934
				c2.369-13.417,4.377-37.498-10.94-44.549c0.146,0.164,0.293,0.328,0.44,0.491c0.067,0.04,0.126,0.082,0.193,0.124
				c14.68,8.841,10.434,35.369,8.136,45.803c-2.298,10.433-4.776,21.574-4.42,37.847c0.286,13.116,5.202,21.701,7.097,24.541
				c0.248,0.348,0.49,0.701,0.744,1.043C124.439,192.049,123.013,188.653,122.191,184.763z"/>
		</g>
		<g>
			<path style="fill:#E4575A;" d="M191.029,85.702c0,0-6.721,4.505-9.021,13.171c-2.298,8.666-0.176,21.221,1.062,29.71
				c1.239,8.488,6.366,28.649,5.306,38.906c-0.99,9.556-5.965,22.328-8.499,26.606c3.313-4.729,6.098-9.805,8.022-15.34
				c4.072-11.695,2.133-23.838-0.243-35.664c-2.323-11.579-4.691-23.352-4.823-35.206c-0.052-4.879,0.697-9.771,2.514-14.308
				C186.591,90.47,188.866,88.133,191.029,85.702z"/>
		</g>
	</g>
	<g>
		<g>
			<path style="fill:#FFFFFF;" d="M235.191,199.717c-0.202-1.297-1.051-2.293-1.178-3.625c-0.093-0.971-0.412-1.744-1.065-2.465
				c-1.043-1.143-2.109-1.645-3.211-1.164c-1.148,0.236-2.201,1.336-2.602,2.391c-0.107,0.279-0.223,0.586-0.226,0.887
				c-0.007,0.83-0.077,0.678-0.802,1.148c-0.572,0.369-1.045,1.092-1.262,1.727c-0.656,1.916-0.135,3.996,2.045,4.6
				c0.629,0.174,1.122-0.225,1.662,0.221c0.354,0.291,0.674,0.633,1.158,0.703c0.969,0.139,1.74-0.133,2.59-0.58
				C233.393,202.984,235.417,201.16,235.191,199.717z"/>
			<path style="fill:#FFFFFF;" d="M229.614,208.314c0.042-0.186,0.066-0.371,0.066-0.547c0.001-0.645-0.391-1.191-0.797-1.65
				c-0.438-0.494-1.127-0.49-1.698-0.279c-1.076,0.4-2.239,1.688-1.893,2.873c0.025,0.908,0.684,1.631,1.721,1.805
				c0.672,0.113,1.286-0.182,1.756-0.66C229.239,209.471,229.556,208.9,229.614,208.314z"/>
			<path style="fill:#FFFFFF;" d="M233.335,204.42c-0.178-0.002-0.346,0.035-0.507,0.102c-0.608,0.168-1.13,0.775-1.377,1.443
				c-0.165,0.375-0.267,0.777-0.302,1.184c-0.044,0.506,0.143,1.066,0.58,1.348c0.471,0.303,1.051-0.031,1.434-0.42
				c0.34-0.201,0.628-0.547,0.846-0.832c0.262-0.336,0.429-0.746,0.483-1.172c0.015-0.063,0.026-0.123,0.032-0.18
				C234.618,205.146,234.124,204.43,233.335,204.42z"/>
		</g>
	</g>
</g>
</svg>
